<svg width="100" height="100" viewBox="0 0 100 100" fill="none" xmlns="http://www.w3.org/2000/svg">


<path d="M28.9366 50.81C28.3523 51.3973 28.3548 52.3471 28.9421 52.9313C29.5293 53.5156 30.4791 53.5132 31.0634 52.9259L28.9366 50.81ZM48.8598 30.1687L49.2628 28.7239V28.7239L48.8598 30.1687ZM53.6332 31.5003L54.0363 30.0554V30.0554L53.6332 31.5003ZM55.6935 32.8681L54.5283 33.8127V33.8127L55.6935 32.8681ZM67.1962 50.6419L65.831 51.2633V51.2633L67.1962 50.6419ZM43.2859 33.0955L42.1827 32.0792L43.2859 33.0955ZM47.7615 39.4768L47.5172 37.9968L47.5172 37.9968L47.7615 39.4768ZM53.4697 42.1138L54.6595 41.2003L54.6595 41.2003L53.4697 42.1138ZM55.4253 49.2678L53.9344 49.4328V49.4328L55.4253 49.2678ZM56.9272 53.1375L56.0851 54.3788C56.7155 54.8065 57.5664 54.6937 58.0636 54.1166C58.5608 53.5396 58.5466 52.6814 58.0304 52.1212L56.9272 53.1375ZM41.2507 54.4562C40.7373 55.1064 40.8482 56.0496 41.4984 56.563C42.1485 57.0764 43.0918 56.9656 43.6052 56.3154L41.2507 54.4562ZM41.2143 36.7328L39.7366 36.9904L41.2143 36.7328ZM69.5563 61.2077L70.9495 61.7636L69.5563 61.2077ZM61.0727 66.4914L61.5418 67.9161L61.0727 66.4914ZM50.922 39.2483L51.4931 37.8612L51.4931 37.8612L50.922 39.2483ZM46.4089 66.7985L47.4859 67.8427L47.4859 67.8426L46.4089 66.7985ZM31.1032 65.6111C30.5419 65.0019 29.593 64.963 28.9837 65.5243C28.3744 66.0856 28.3355 67.0345 28.8968 67.6438L31.1032 65.6111ZM46.7591 66.309L47.3053 64.912C46.6207 64.6443 45.8429 64.9123 45.4684 65.5448L46.7591 66.309ZM46.6905 66.425L45.3998 65.6608L45.3997 65.6608L46.6905 66.425ZM47.5609 51.6568L48.0194 53.0851L47.5609 51.6568ZM48.4567 31.6136L53.2302 32.9451L54.0363 30.0554L49.2628 28.7239L48.4567 31.6136ZM54.5283 33.8127C59.7006 40.1933 63.0144 45.075 65.831 51.2633L68.5615 50.0205C65.6014 43.5168 62.1204 38.4144 56.8588 31.9236L54.5283 33.8127ZM53.9344 49.4328C54.1061 50.9837 54.6078 52.8336 55.8241 54.1538L58.0304 52.1212C57.4439 51.4845 57.058 50.384 56.9162 49.1027L53.9344 49.4328ZM52.2799 43.0272C52.6726 43.5387 52.9454 43.8943 53.1366 44.16C53.3494 44.4556 53.371 44.5199 53.3538 44.4766L56.1418 43.3689C56.0058 43.0266 55.7748 42.6898 55.5714 42.4073C55.3465 42.095 55.0396 41.6955 54.6595 41.2003L52.2799 43.0272ZM56.9162 49.1027C56.7304 47.4251 56.5895 46.1524 56.4802 45.2628C56.4256 44.8191 56.377 44.4549 56.3329 44.1761C56.2991 43.9631 56.2445 43.6274 56.1418 43.3689L53.3538 44.4766C53.3104 44.3675 53.3236 44.3542 53.3698 44.6457C53.4056 44.8716 53.4492 45.1942 53.5026 45.6288C53.6092 46.496 53.7477 47.7464 53.9344 49.4328L56.9162 49.1027ZM42.1827 32.0792C41.4623 32.8612 40.7813 33.5919 40.3384 34.2901C39.8413 35.0736 39.5546 35.9467 39.7366 36.9904L42.692 36.4751C42.6704 36.3512 42.6612 36.2288 42.8716 35.8973C43.1361 35.4803 43.5928 34.9763 44.3891 34.1119L42.1827 32.0792ZM65.831 51.2633C67.0196 53.8747 67.8312 55.6695 68.2327 57.1636C68.6116 58.5743 68.5871 59.5894 68.1632 60.6519L70.9495 61.7636C71.6695 59.9591 71.633 58.2576 71.1299 56.3852C70.6493 54.5963 69.7089 52.5416 68.5615 50.0205L65.831 51.2633ZM61.5418 67.9161C63.9344 67.1284 65.9302 66.4778 67.4505 65.6309C69.0679 64.7298 70.2301 63.5668 70.9495 61.7636L68.1632 60.6519C67.7387 61.7157 67.1055 62.3889 65.9905 63.0102C64.7781 63.6855 63.1041 64.2433 60.6036 65.0666L61.5418 67.9161ZM48.0059 40.9567C48.913 40.8069 49.513 40.7088 49.9524 40.6682C50.428 40.6241 50.4581 40.6794 50.3509 40.6353L51.4931 37.8612C50.8774 37.6077 50.2113 37.6314 49.6758 37.6809C49.1041 37.7339 48.378 37.8547 47.5172 37.9968L48.0059 40.9567ZM45.332 65.7544C43.5726 67.569 40.9158 68.5249 38.1795 68.4995C35.4436 68.4741 32.8153 67.4697 31.1032 65.6111L28.8968 67.6438C31.2741 70.2244 34.7538 71.4678 38.1517 71.4994C41.5492 71.5309 45.0521 70.3528 47.4859 67.8427L45.332 65.7544ZM60.6036 65.0666C55.9402 66.602 51.9875 66.7426 47.3053 64.912L46.2129 67.706C51.6463 69.8304 56.327 69.6331 61.5418 67.9161L60.6036 65.0666ZM47.9812 67.1892L48.0499 67.0732L45.4684 65.5448L45.3998 65.6608L47.9812 67.1892ZM47.4859 67.8426C47.6894 67.6327 47.8516 67.4081 47.9813 67.1891L45.3997 65.6608C45.37 65.7111 45.346 65.7399 45.332 65.7544L47.4859 67.8426ZM57.7694 51.8962C55.6574 50.4634 51.4457 48.8345 47.1025 50.2286L48.0194 53.0851C51.1923 52.0666 54.4408 53.2633 56.0851 54.3788L57.7694 51.8962ZM47.1025 50.2286C45.0344 50.8924 43.0152 52.2218 41.2507 54.4562L43.6052 56.3154C45.0218 54.5215 46.5512 53.5563 48.0194 53.0851L47.1025 50.2286ZM48.5901 50.5656C45.9918 48.115 42.2889 46.9802 38.7127 47.0185C35.1368 47.0569 31.4627 48.271 28.9366 50.81L31.0634 52.9259C32.9106 51.0692 35.7614 50.0504 38.7449 50.0184C41.7281 49.9864 44.6189 50.944 46.5317 52.7481L48.5901 50.5656ZM50.3509 40.6353C50.5064 40.6993 50.7627 40.9035 51.1435 41.4075C51.3207 41.6422 51.4922 41.8956 51.6823 42.1777C51.8621 42.4445 52.0687 42.7521 52.2799 43.0272L54.6595 41.2003C54.5156 41.013 54.3632 40.7876 54.1699 40.5009C53.9869 40.2294 53.7712 39.9089 53.5372 39.5992C53.0955 39.0144 52.4329 38.2482 51.4931 37.8612L50.3509 40.6353ZM53.2302 32.9451C53.5485 33.0339 53.7273 33.0851 53.8584 33.1309C53.9171 33.1515 53.9494 33.1653 53.9662 33.1732C53.9742 33.1769 53.9786 33.1793 53.9803 33.1803C53.9813 33.1808 53.9818 33.1811 53.9819 33.1812C53.982 33.1813 53.9821 33.1813 53.9821 33.1813C53.9821 33.1813 53.9821 33.1813 53.9822 33.1813C53.9822 33.1814 53.9822 33.1814 53.9823 33.1814C53.9823 33.1815 53.9825 33.1816 53.9827 33.1817C53.983 33.182 53.9838 33.1825 53.985 33.1835C53.9874 33.1854 53.9924 33.1893 54.0002 33.1964C54.0168 33.2113 54.0449 33.2385 54.0901 33.2878C54.1898 33.3968 54.3141 33.5485 54.5283 33.8127L56.8588 31.9236C56.5046 31.4867 56.1374 31.0116 55.6428 30.6829C55.1406 30.3491 54.5631 30.2024 54.0363 30.0554L53.2302 32.9451ZM49.2628 28.7239C47.4453 28.2169 46.0008 28.6172 44.8134 29.4573C43.7896 30.1818 42.8799 31.3225 42.1827 32.0792L44.3891 34.1119C45.335 33.0852 45.8666 32.3871 46.5462 31.9063C47.0621 31.5413 47.5831 31.3698 48.4567 31.6136L49.2628 28.7239ZM39.7366 36.9904C40.1047 39.1011 41.9943 40.1286 43.4718 40.5882C45.0276 41.0721 46.7923 41.1571 48.0059 40.9567L47.5172 37.9968C46.7764 38.1191 45.4839 38.0722 44.3627 37.7235C43.1633 37.3505 42.7565 36.8448 42.692 36.4751L39.7366 36.9904Z" fill="none"/>
</svg>
