<svg width="100" height="100" viewBox="0 0 100 100" fill="none" xmlns="http://www.w3.org/2000/svg">


<path d="M35.9979 30C41.3806 30.6272 53.793 33.7914 59.2799 41.491C59.9513 42.4329 60.6582 43.0995 61.817 43.3927C63.2664 43.7528 64.4661 44.7249 64.9016 46.1922C65.3654 47.7889 66.2218 49.4729 65.9498 51.1801C65.8456 51.8338 65.5257 52.4359 64.8858 53.64L56.1918 70" stroke="currentColor" stroke-width="3" stroke-linecap="round" stroke-linejoin="round" fill="none"/>
<path d="M33.9979 50C35.9979 53.4528 42.3267 55.1917 49.9979 53.4528C48.8254 54.1355 46.8234 55.3669 44.6285 57.9022C43.5105 59.1935 43.0334 60.9909 42.9556 62.8053C42.8516 65.2299 42.4918 67.8676 41.2479 70" stroke="currentColor" stroke-width="3" stroke-linecap="round" stroke-linejoin="round" fill="none"/>
<path d="M35.9979 40C35.9979 40 39.9159 40.5784 42.9979 43C44.9979 44.5714 48.8313 45.619 49.9979 46" stroke="currentColor" stroke-width="3" stroke-linecap="round" stroke-linejoin="round" fill="none"/>
</svg>
