<svg width="100" height="100" viewBox="0 0 100 100" fill="none" xmlns="http://www.w3.org/2000/svg">


<path d="M50.0037 54V50.7213M50.0037 54C46.6714 54 43.339 53.6359 40.0066 52.9075M50.0037 54C53.337 54 56.6704 53.6363 60.0037 52.9075M40.0066 52.9075C37.4569 52.3503 34.9071 51.5798 32.3573 50.5961C31.3382 50.203 30.8286 50.0064 30.479 49.5562C29.8989 48.8091 30.0037 47.7688 30.0037 46.8791C30.0037 44.416 30.0037 41.1844 30.6053 40.5413C31.7442 39.3237 33.9184 40.4444 35.183 40.8541C45.0635 44.0555 54.944 44.0555 64.8245 40.8541C66.089 40.4444 68.2632 39.3237 69.4021 40.5413C70.0037 41.1844 70.0037 44.416 70.0037 46.8791C70.0037 48.1143 70.0037 48.7319 69.7317 49.2422C69.3137 50.0261 68.431 50.2949 67.6501 50.5961C65.1013 51.5794 62.5526 52.3503 60.0037 52.9075M40.0066 52.9075L40.0037 49.6282M60.0037 52.9075V49.6282" stroke="currentColor" stroke-width="3" stroke-linecap="round" stroke-linejoin="round" fill="none"/>
<path d="M34.1807 32.4743C33.9187 31.6884 34.3435 30.8389 35.1294 30.577C35.9153 30.315 36.7648 30.7397 37.0267 31.5257L34.1807 32.4743ZM35.5037 68C35.5037 68.8284 34.8321 69.5 34.0037 69.5C33.1753 69.5 32.5037 68.8284 32.5037 68H35.5037ZM62.9807 31.5257C63.2427 30.7397 64.0921 30.315 64.8781 30.577C65.664 30.8389 66.0887 31.6884 65.8267 32.4743L62.9807 31.5257ZM67.5037 68C67.5037 68.8284 66.8322 69.5 66.0037 69.5C65.1753 69.5 64.5037 68.8284 64.5037 68H67.5037ZM35.3946 56.5736C35.6301 55.7793 36.4648 55.3264 37.2591 55.5619C38.0533 55.7974 38.5063 56.6322 38.2708 57.4264L35.3946 56.5736ZM61.7367 57.4264C61.5012 56.6322 61.9541 55.7974 62.7484 55.5619C63.5426 55.3264 64.3774 55.7793 64.6129 56.5736L61.7367 57.4264ZM63.6367 41.2896C63.5574 42.1143 62.8245 42.7184 61.9999 42.6391C61.1753 42.5597 60.5712 41.8269 60.6505 41.0023L63.6367 41.2896ZM39.3569 41.0023C39.4363 41.8269 38.8321 42.5597 38.0075 42.6391C37.1829 42.7184 36.4501 42.1143 36.3707 41.2896L39.3569 41.0023ZM38.2708 57.4264C37.9606 58.4726 37.6216 59.4078 37.2975 60.2739C36.9686 61.153 36.6669 61.9309 36.3982 62.7351C35.8751 64.3 35.5037 65.8909 35.5037 68H32.5037C32.5037 65.4869 32.9566 63.5683 33.5529 61.7841C33.8438 60.9137 34.1756 60.0571 34.4878 59.2227C34.8048 58.3752 35.1146 57.5179 35.3946 56.5736L38.2708 57.4264ZM64.6129 56.5736C64.8929 57.5179 65.2026 58.3752 65.5197 59.2227C65.8319 60.0571 66.1636 60.9137 66.4546 61.7841C67.0509 63.5683 67.5037 65.4869 67.5037 68H64.5037C64.5037 65.8909 64.1323 64.3 63.6093 62.7351C63.3405 61.9309 63.0388 61.153 62.7099 60.2739C62.3859 59.4078 62.0469 58.4726 61.7367 57.4264L64.6129 56.5736ZM65.8267 32.4743C65.1791 34.4173 64.1079 36.3936 63.6367 41.2896L60.6505 41.0023C61.1637 35.6699 62.4073 33.2458 62.9807 31.5257L65.8267 32.4743ZM37.0267 31.5257C37.6001 33.2458 38.8438 35.6699 39.3569 41.0023L36.3707 41.2896C35.8996 36.3936 34.8284 34.4173 34.1807 32.4743L37.0267 31.5257Z" fill="none"/>
<path d="M64.0037 64C54.6704 66.6667 45.3371 66.6667 36.0037 64" stroke="currentColor" stroke-width="3" stroke-linecap="round" stroke-linejoin="round" fill="none"/>
</svg>
