<svg width="100" height="100" viewBox="0 0 100 100" fill="none" xmlns="http://www.w3.org/2000/svg">


<path d="M40.7962 42.2002L39.4232 41.596L39.4232 41.596L40.7962 42.2002ZM37.944 48.6821L38.9908 49.7564C39.1287 49.622 39.2395 49.4624 39.317 49.2862L37.944 48.6821ZM63.9239 48.8338L64.5807 50.1824L64.5807 50.1824L63.9239 48.8338ZM66.2825 47.5913L67.1461 48.8177L67.1461 48.8177L66.2825 47.5913ZM67.7667 38.6832L68.9737 37.7928V37.7928L67.7667 38.6832ZM63.7027 59.3564L63.3478 57.899L63.7027 59.3564ZM53.8088 61.7656L54.1637 63.223H54.1637L53.8088 61.7656ZM34.233 52.298L35.2796 53.3726L35.2798 53.3723L34.233 52.298ZM66.6402 47.4507C65.9602 46.9776 65.0254 47.1454 64.5523 47.8254C64.0792 48.5055 64.2469 49.4403 64.9269 49.9134L66.6402 47.4507ZM31.0216 56.7905L29.5293 56.6383L31.0216 56.7905ZM48.152 65.8549L47.1054 64.7804H47.1054L48.152 65.8549ZM43.5396 68.9828L43.684 70.4758L43.5396 68.9828ZM59.6424 53.201C59.6424 54.0295 60.314 54.701 61.1424 54.701C61.9709 54.701 62.6424 54.0294 62.6424 53.201L59.6424 53.201ZM46.982 33.8845L46.0025 32.7485L46.0025 32.7485L46.982 33.8845ZM39.4232 41.596L36.5711 48.0779L39.317 49.2862L42.1692 42.8043L39.4232 41.596ZM64.5807 50.1824C65.8031 49.5871 66.5885 49.2103 67.1461 48.8177L65.4188 46.3648C65.1112 46.5815 64.6127 46.83 63.2672 47.4852L64.5807 50.1824ZM67.1461 48.8177C70.7546 46.2766 71.5905 41.34 68.9737 37.7928L66.5596 39.5737C68.163 41.7472 67.6714 44.7786 65.4188 46.3648L67.1461 48.8177ZM63.3478 57.899L53.4539 60.3081L54.1637 63.223L64.0576 60.8138L63.3478 57.899ZM35.2798 53.3723L38.9908 49.7564L36.8972 47.6077L33.1862 51.2237L35.2798 53.3723ZM64.9269 49.9134C68.0979 52.1194 67.2137 56.9577 63.3478 57.899L64.0576 60.8138C70.3589 59.2795 71.9972 51.1776 66.6402 47.4507L64.9269 49.9134ZM33.1864 51.2235C32.1974 52.1867 31.342 53.015 30.7332 53.8044C30.0839 54.6462 29.6422 55.531 29.5293 56.6383L32.5139 56.9426C32.5554 56.5349 32.7004 56.1659 33.1087 55.6365C33.5576 55.0546 34.2306 54.3942 35.2796 53.3726L33.1864 51.2235ZM47.1054 64.7804C44.9302 66.899 44.314 67.4009 43.3952 67.4897L43.684 70.4758C45.8762 70.2638 47.2979 68.7807 49.1986 66.9295L47.1054 64.7804ZM53.4539 60.3081C50.5375 61.0183 48.6451 63.2808 47.1054 64.7804L49.1986 66.9295C51.0793 65.0977 52.2564 63.6874 54.1637 63.223L53.4539 60.3081ZM63.2672 47.4852C61.0376 48.571 59.6424 50.5799 59.6424 53.201L62.6424 53.201C62.6424 51.8063 63.3101 50.8012 64.5807 50.1824L63.2672 47.4852ZM68.9737 37.7928C66.4326 34.3481 62.7404 31.4106 58.655 30.1523C54.5067 28.8747 49.9517 29.3429 46.0025 32.7485L47.9616 35.0204C51.0286 32.3757 54.4766 32.0045 57.7719 33.0194C61.1301 34.0537 64.3221 36.5407 66.5596 39.5737L68.9737 37.7928ZM42.1692 42.8043C43.4897 39.8034 45.467 37.1716 47.9616 35.0204L46.0025 32.7485C43.1825 35.1802 40.9302 38.1713 39.4232 41.596L42.1692 42.8043ZM43.3952 67.4897C42.7095 67.556 41.6509 67.3068 40.3334 66.6269C39.0546 65.9669 37.6923 64.9836 36.4572 63.8243C35.2209 62.664 34.1582 61.3707 33.4438 60.1176C32.7148 58.8389 32.4315 57.7504 32.5139 56.9426L29.5293 56.6383C29.3574 58.3252 29.9585 60.0615 30.8376 61.6035C31.7313 63.171 33.0003 64.6942 34.4041 66.0118C35.8089 67.3304 37.395 68.4864 38.9576 69.2928C40.4814 70.0792 42.1573 70.6234 43.684 70.4758L43.3952 67.4897Z" fill="none"/>
<path d="M39.5 49C39.5 48.1716 38.8284 47.5 38 47.5C37.1716 47.5 36.5 48.1716 36.5 49H39.5ZM50.5544 64.4323C51.3454 64.6784 52.1862 64.2366 52.4323 63.4456C52.6784 62.6546 52.2366 61.8138 51.4456 61.5677L50.5544 64.4323ZM51.4456 61.5677C48.7227 60.7206 45.6808 58.7725 43.3245 56.3534C40.9337 53.8988 39.5 51.2246 39.5 49H36.5C36.5 52.3754 38.5663 55.7678 41.1755 58.4466C43.8192 61.1608 47.2773 63.4128 50.5544 64.4323L51.4456 61.5677Z" fill="none"/>
</svg>
