<svg width="100" height="100" viewBox="0 0 100 100" fill="none" xmlns="http://www.w3.org/2000/svg">


<path d="M62 61C54 63.6667 46 63.6667 38 61M62 47C54 44.3333 46 44.3333 38 47" stroke="currentColor" stroke-width="3" stroke-linecap="round" stroke-linejoin="round" fill="none"/>
<path d="M58 39L52.9896 33.3633C51.5953 31.7947 50.8981 31.0104 50 31.0104C49.1019 31.0104 48.4047 31.7947 47.0104 33.3633L42 39" stroke="currentColor" stroke-width="3" stroke-linecap="round" stroke-linejoin="round" fill="none"/>
<path d="M62 30L38 30" stroke="currentColor" stroke-width="3" stroke-linecap="round" stroke-linejoin="round" fill="none"/>
<path d="M44.2228 69.5364C48.0743 70.1545 51.9257 70.1545 55.7772 69.5364C61.0339 68.6929 62 66.9355 62 62.5837V45.4163C62 41.0645 61.0339 39.3071 55.7772 38.4636C51.9257 37.8455 48.0743 37.8455 44.2228 38.4636C38.9661 39.3071 38 41.0645 38 45.4163V62.5837C38 66.9355 38.9661 68.6929 44.2228 69.5364Z" stroke="currentColor" stroke-width="3" stroke-linecap="round" stroke-linejoin="round" fill="none"/>
</svg>
