<svg width="100" height="100" viewBox="0 0 100 100" fill="none" xmlns="http://www.w3.org/2000/svg">


<path d="M34.8673 62.0607C35.4531 61.4749 35.4531 60.5251 34.8673 59.9393C34.2816 59.3536 33.3318 59.3536 32.746 59.9393L34.8673 62.0607ZM37.2689 67.9244L38.3296 68.9851L38.3296 68.9851L37.2689 67.9244ZM40.0607 67.254C40.6464 66.6682 40.6464 65.7184 40.0607 65.1327C39.4749 64.5469 38.5251 64.5469 37.9393 65.1327L40.0607 67.254ZM32.746 59.9393L31.0149 61.6704L33.1362 63.7918L34.8673 62.0607L32.746 59.9393ZM38.3296 68.9851L40.0607 67.254L37.9393 65.1327L36.2082 66.8638L38.3296 68.9851ZM31.0149 68.9851C33.0348 71.005 36.3097 71.005 38.3296 68.9851L36.2082 66.8638C35.3599 67.7121 33.9845 67.7121 33.1362 66.8638L31.0149 68.9851ZM31.0149 61.6704C28.995 63.6903 28.995 66.9652 31.0149 68.9851L33.1362 66.8638C32.2879 66.0155 32.2879 64.6401 33.1362 63.7918L31.0149 61.6704Z" fill="none"/>
<path d="M59.9393 32.746C59.3536 33.3318 59.3536 34.2816 59.9393 34.8673C60.5251 35.4531 61.4749 35.4531 62.0607 34.8673L59.9393 32.746ZM67.9244 37.2689L68.9851 38.3296L68.9851 38.3296L67.9244 37.2689ZM65.1327 37.9393C64.5469 38.5251 64.5469 39.4749 65.1327 40.0607C65.7184 40.6464 66.6682 40.6464 67.254 40.0607L65.1327 37.9393ZM62.0607 34.8673L63.7918 33.1362L61.6704 31.0149L59.9393 32.746L62.0607 34.8673ZM66.8638 36.2082L65.1327 37.9393L67.254 40.0607L68.9851 38.3296L66.8638 36.2082ZM66.8638 33.1362C67.7121 33.9845 67.7121 35.3599 66.8638 36.2082L68.9851 38.3296C71.005 36.3097 71.005 33.0348 68.9851 31.0149L66.8638 33.1362ZM63.7918 33.1362C64.6401 32.2879 66.0155 32.2879 66.8638 33.1362L68.9851 31.0149C66.9652 28.995 63.6903 28.995 61.6704 31.0149L63.7918 33.1362Z" fill="none"/>
<path d="M41.5 53.5C41.5 53.5 43.3109 51.0566 44.5 50.5C48.0897 48.8197 48.8197 48.0897 50.5 44.5C51.0566 43.3109 53.5 41.5 53.5 41.5M46.5 58.5C46.5 58.5 48.9434 56.6891 49.5 55.5C51.1803 51.9103 51.9103 51.1803 55.5 49.5C56.6891 48.9434 58.5 46.5 58.5 46.5" stroke="currentColor" stroke-width="3" stroke-linecap="round" stroke-linejoin="round" fill="none"/>
<path d="M60 46.6492L58.9393 47.7098L60 46.6492ZM53.3508 40L54.4115 38.9393L53.3508 40ZM60 33.3508L61.0607 32.2902L60 33.3508ZM66.6492 40L65.5885 41.0607L65.5885 41.0607L66.6492 40ZM56.6754 31V29.5H56.6754L56.6754 31ZM51 36.6754L52.5 36.6754V36.6754H51ZM63.3246 49V50.5H63.3246L63.3246 49ZM69 43.3246H70.5V43.3246L69 43.3246ZM61.0607 45.5885L54.4115 38.9393L52.2902 41.0607L58.9393 47.7098L61.0607 45.5885ZM58.9393 34.4115L65.5885 41.0607L67.7098 38.9393L61.0607 32.2902L58.9393 34.4115ZM54.4115 34.4115C55.2251 33.5979 55.7308 33.0967 56.1455 32.7802C56.5256 32.4902 56.6484 32.5 56.6754 32.5L56.6754 29.5C55.7287 29.5 54.9728 29.9016 54.3258 30.3952C53.7135 30.8624 53.0438 31.5365 52.2902 32.2902L54.4115 34.4115ZM61.0607 32.2902C60.307 31.5365 59.6374 30.8624 59.025 30.3952C58.3781 29.9016 57.6221 29.5 56.6754 29.5V32.5C56.7025 32.5 56.8252 32.4902 57.2053 32.7802C57.62 33.0967 58.1257 33.5979 58.9393 34.4115L61.0607 32.2902ZM54.4115 38.9393C53.5979 38.1257 53.0967 37.62 52.7802 37.2053C52.4902 36.8252 52.5 36.7025 52.5 36.6754L49.5 36.6754C49.5 37.6221 49.9016 38.3781 50.3952 39.025C50.8624 39.6374 51.5365 40.307 52.2902 41.0607L54.4115 38.9393ZM52.2902 32.2902C51.5365 33.0438 50.8624 33.7135 50.3952 34.3258C49.9016 34.9728 49.5 35.7287 49.5 36.6754L52.5 36.6754C52.5 36.6484 52.4902 36.5256 52.7802 36.1455C53.0967 35.7308 53.5979 35.2251 54.4115 34.4115L52.2902 32.2902ZM65.5885 45.5885C64.7749 46.4021 64.2692 46.9033 63.8545 47.2198C63.4744 47.5098 63.3516 47.5 63.3246 47.5L63.3246 50.5C64.2713 50.5 65.0272 50.0984 65.6742 49.6048C66.2865 49.1376 66.9562 48.4635 67.7098 47.7098L65.5885 45.5885ZM58.9393 47.7098C59.693 48.4635 60.3626 49.1376 60.975 49.6048C61.6219 50.0984 62.3779 50.5 63.3246 50.5L63.3246 47.5C63.2975 47.5 63.1748 47.5098 62.7947 47.2198C62.38 46.9033 61.8743 46.4021 61.0607 45.5885L58.9393 47.7098ZM67.7098 47.7098C68.4635 46.9562 69.1376 46.2865 69.6048 45.6742C70.0984 45.0272 70.5 44.2713 70.5 43.3246L67.5 43.3246C67.5 43.3516 67.5098 43.4744 67.2198 43.8544C66.9033 44.2692 66.4021 44.7749 65.5885 45.5885L67.7098 47.7098ZM65.5885 41.0607C66.4021 41.8743 66.9033 42.38 67.2198 42.7947C67.5098 43.1748 67.5 43.2975 67.5 43.3246L70.5 43.3246C70.5 42.3779 70.0984 41.6219 69.6048 40.975C69.1376 40.3626 68.4635 39.693 67.7098 38.9393L65.5885 41.0607Z" fill="none"/>
<path d="M46.6492 60L47.7098 58.9393L46.6492 60ZM40 53.3508L38.9393 54.4115L40 53.3508ZM33.3508 60L32.2902 61.0607L33.3508 60ZM40 66.6492L41.0607 65.5885L41.0607 65.5885L40 66.6492ZM31 56.6754L29.5 56.6754V56.6754H31ZM36.6754 51V52.5H36.6754L36.6754 51ZM49 63.3246L50.5 63.3246V63.3246H49ZM43.3246 69L43.3246 70.5H43.3246V69ZM47.7098 58.9393L41.0607 52.2902L38.9393 54.4115L45.5885 61.0607L47.7098 58.9393ZM32.2902 61.0607L38.9393 67.7098L41.0607 65.5885L34.4115 58.9393L32.2902 61.0607ZM32.2902 52.2902C31.5365 53.0438 30.8624 53.7135 30.3952 54.3258C29.9016 54.9728 29.5 55.7287 29.5 56.6754L32.5 56.6754C32.5 56.6484 32.4902 56.5256 32.7802 56.1455C33.0967 55.7308 33.5979 55.2251 34.4115 54.4115L32.2902 52.2902ZM34.4115 58.9393C33.5979 58.1257 33.0967 57.62 32.7802 57.2053C32.4902 56.8252 32.5 56.7025 32.5 56.6754H29.5C29.5 57.6221 29.9016 58.3781 30.3952 59.025C30.8624 59.6374 31.5365 60.307 32.2902 61.0607L34.4115 58.9393ZM41.0607 52.2902C40.307 51.5365 39.6374 50.8624 39.025 50.3952C38.3781 49.9016 37.6221 49.5 36.6754 49.5L36.6754 52.5C36.7025 52.5 36.8252 52.4902 37.2053 52.7802C37.62 53.0967 38.1257 53.5979 38.9393 54.4115L41.0607 52.2902ZM34.4115 54.4115C35.2251 53.5979 35.7308 53.0967 36.1455 52.7802C36.5256 52.4902 36.6484 52.5 36.6754 52.5L36.6754 49.5C35.7287 49.5 34.9728 49.9016 34.3258 50.3952C33.7135 50.8624 33.0438 51.5365 32.2902 52.2902L34.4115 54.4115ZM47.7098 67.7098C48.4635 66.9562 49.1376 66.2865 49.6048 65.6742C50.0984 65.0272 50.5 64.2713 50.5 63.3246L47.5 63.3246C47.5 63.3516 47.5098 63.4744 47.2198 63.8545C46.9033 64.2692 46.4021 64.7749 45.5885 65.5885L47.7098 67.7098ZM45.5885 61.0607C46.4021 61.8743 46.9033 62.38 47.2198 62.7947C47.5098 63.1748 47.5 63.2975 47.5 63.3246L50.5 63.3246C50.5 62.3779 50.0984 61.6219 49.6048 60.975C49.1376 60.3626 48.4635 59.693 47.7098 58.9393L45.5885 61.0607ZM45.5885 65.5885C44.7749 66.4021 44.2692 66.9033 43.8544 67.2198C43.4744 67.5098 43.3516 67.5 43.3246 67.5L43.3246 70.5C44.2713 70.5 45.0272 70.0984 45.6742 69.6048C46.2865 69.1376 46.9562 68.4635 47.7098 67.7098L45.5885 65.5885ZM38.9393 67.7098C39.693 68.4635 40.3626 69.1376 40.975 69.6048C41.6219 70.0984 42.3779 70.5 43.3246 70.5L43.3246 67.5C43.2975 67.5 43.1748 67.5098 42.7947 67.2198C42.38 66.9033 41.8743 66.4021 41.0607 65.5885L38.9393 67.7098Z" fill="none"/>
</svg>
