<svg width="100" height="100" viewBox="0 0 100 100" fill="none" xmlns="http://www.w3.org/2000/svg">


<path d="M58 42C57.5124 43.4627 56.5093 44.5855 55.0892 45.2151C50.5283 47.2369 47.2369 50.5283 45.2151 55.0892C44.5855 56.5093 43.4627 57.5124 42 58" stroke="currentColor" stroke-width="3" stroke-linejoin="round" fill="none"/>
<path d="M32.4 67.6L30 70M67.6 32.4L70 30" stroke="currentColor" stroke-width="3" stroke-linecap="round" stroke-linejoin="round" fill="none"/>
<path d="M38.3849 53.8717L39.4456 52.811L38.3849 53.8717ZM46.1283 61.6151L45.0676 62.6758L46.1283 61.6151ZM41.4823 66.2612L42.5429 65.2005L41.4823 66.2612ZM44.6434 67.5103L45.2174 68.8961L44.6434 67.5103ZM42.9671 67.5103L42.3931 68.8961L42.9671 67.5103ZM47.3774 63.1L48.7632 62.526H48.7632L47.3774 63.1ZM47.3774 64.7763L48.7632 65.3503L47.3774 64.7763ZM35.2237 52.6226L34.6497 51.2368H34.6497L35.2237 52.6226ZM36.9 52.6226L37.474 51.2368L37.474 51.2368L36.9 52.6226ZM32.4897 55.3566L31.1039 54.7826V54.7826L32.4897 55.3566ZM32.4897 57.0329L31.1039 57.6069V57.6069L32.4897 57.0329ZM39.9336 67.8098L40.9942 68.8705L39.9336 67.8098ZM33.7388 67.8098L32.6782 68.8705H32.6782L33.7388 67.8098ZM32.1902 66.2612L33.2508 65.2005H33.2508L32.1902 66.2612ZM36.8362 70L36.8362 68.5H36.8362L36.8362 70ZM53.8717 38.3849L52.811 39.4456L53.8717 38.3849ZM61.6151 46.1283L62.6758 45.0676L61.6151 46.1283ZM66.2612 41.4823L65.2005 42.5429L66.2612 41.4823ZM67.5103 44.6434L68.8961 45.2174L67.5103 44.6434ZM67.5103 42.9671L68.8961 42.3931L67.5103 42.9671ZM63.1 47.3774L62.526 48.7632V48.7632L63.1 47.3774ZM64.7763 47.3774L65.3503 48.7632L64.7763 47.3774ZM52.6226 35.2237L51.2368 34.6497V34.6497L52.6226 35.2237ZM52.6226 36.9L51.2368 37.474L51.2368 37.474L52.6226 36.9ZM55.3566 32.4897L54.7826 31.1039H54.7826L55.3566 32.4897ZM57.0329 32.4897L57.6069 31.1039H57.6069L57.0329 32.4897ZM67.8098 39.9336L68.8705 40.9942L67.8098 39.9336ZM67.8098 33.7388L68.8705 32.6782V32.6782L67.8098 33.7388ZM66.2612 32.1902L65.2005 33.2508V33.2508L66.2612 32.1902ZM70 36.8362L68.5 36.8362V36.8362L70 36.8362ZM37.3242 54.9324L45.0676 62.6758L47.189 60.5545L39.4456 52.811L37.3242 54.9324ZM42.5429 65.2005L34.7995 57.4571L32.6782 59.5784L40.4216 67.3218L42.5429 65.2005ZM45.0676 65.2005C44.6923 65.5758 44.4634 65.8036 44.2802 65.9634C44.1072 66.1143 44.0574 66.1294 44.0694 66.1244L45.2174 68.8961C45.6319 68.7244 45.9638 68.4757 46.2522 68.2242C46.5304 67.9815 46.8427 67.6681 47.189 67.3218L45.0676 65.2005ZM40.4216 67.3218C40.7679 67.6681 41.0801 67.9815 41.3584 68.2242C41.6468 68.4757 41.9786 68.7244 42.3931 68.8961L43.5412 66.1244C43.5532 66.1294 43.5034 66.1143 43.3304 65.9634C43.1472 65.8036 42.9182 65.5758 42.5429 65.2005L40.4216 67.3218ZM44.0694 66.1244C43.9003 66.1945 43.7103 66.1945 43.5412 66.1244L42.3931 68.8961C43.2973 69.2706 44.3132 69.2706 45.2174 68.8961L44.0694 66.1244ZM45.0676 62.6758C45.4429 63.0511 45.6707 63.28 45.8305 63.4632C45.9814 63.6362 45.9966 63.686 45.9916 63.674L48.7632 62.526C48.5915 62.1115 48.3429 61.7796 48.0913 61.4912C47.8486 61.213 47.5352 60.9007 47.189 60.5545L45.0676 62.6758ZM47.189 67.3218C47.5352 66.9755 47.8486 66.6633 48.0913 66.385C48.3429 66.0966 48.5915 65.7648 48.7632 65.3503L45.9916 64.2022C45.9966 64.1903 45.9815 64.24 45.8305 64.413C45.6707 64.5962 45.4429 64.8252 45.0676 65.2005L47.189 67.3218ZM45.9916 63.674C46.0616 63.8431 46.0616 64.0331 45.9916 64.2022L48.7632 65.3503C49.1378 64.4461 49.1378 63.4302 48.7632 62.526L45.9916 63.674ZM34.7995 54.9324C35.1748 54.5571 35.4038 54.3293 35.587 54.1695C35.76 54.0185 35.8097 54.0034 35.7978 54.0084L34.6497 51.2368C34.2352 51.4085 33.9033 51.6571 33.615 51.9087C33.3367 52.1514 33.0245 52.4648 32.6782 52.811L34.7995 54.9324ZM39.4456 52.811C39.0993 52.4648 38.787 52.1514 38.5088 51.9087C38.2204 51.6571 37.8885 51.4085 37.474 51.2368L36.326 54.0084C36.314 54.0034 36.3638 54.0185 36.5368 54.1695C36.72 54.3293 36.9489 54.5571 37.3242 54.9324L39.4456 52.811ZM35.7978 54.0084C35.9669 53.9384 36.1569 53.9384 36.326 54.0084L37.474 51.2368C36.5698 50.8622 35.5539 50.8622 34.6497 51.2368L35.7978 54.0084ZM32.6782 52.811C32.3319 53.1573 32.0185 53.4696 31.7758 53.7478C31.5243 54.0362 31.2756 54.3681 31.1039 54.7826L33.8756 55.9306C33.8706 55.9426 33.8857 55.8928 34.0366 55.7198C34.1964 55.5366 34.4242 55.3077 34.7995 54.9324L32.6782 52.811ZM34.7995 57.4571C34.4242 57.0818 34.1964 56.8528 34.0366 56.6696C33.8857 56.4966 33.8706 56.4468 33.8756 56.4588L31.1039 57.6069C31.2756 58.0214 31.5243 58.3532 31.7758 58.6416C32.0185 58.9199 32.3319 59.2321 32.6782 59.5784L34.7995 57.4571ZM31.1039 54.7826C30.7294 55.6868 30.7294 56.7027 31.1039 57.6069L33.8756 56.4588C33.8055 56.2897 33.8055 56.0997 33.8756 55.9306L31.1039 54.7826ZM33.2508 61.1271L34.7995 59.5784L32.6782 57.4571L31.1295 59.0058L33.2508 61.1271ZM40.4216 65.2005L38.8729 66.7492L40.9942 68.8705L42.5429 67.3218L40.4216 65.2005ZM34.7995 66.7492L33.2508 65.2005L31.1295 67.3218L32.6782 68.8705L34.7995 66.7492ZM38.8729 66.7492C38.1129 67.5092 37.6473 67.9703 37.2677 68.2599C37.092 68.394 36.9827 68.4526 36.9202 68.4787C36.8697 68.4997 36.8496 68.5 36.8362 68.5L36.8362 71.5C37.7496 71.5 38.4756 71.1118 39.0874 70.645C39.6647 70.2046 40.2942 69.5706 40.9942 68.8705L38.8729 66.7492ZM32.6782 68.8705C33.3783 69.5706 34.0078 70.2046 34.585 70.645C35.1969 71.1118 35.9228 71.5 36.8362 71.5L36.8362 68.5C36.8228 68.5 36.8027 68.4997 36.7522 68.4787C36.6897 68.4526 36.5804 68.394 36.4047 68.2599C36.0251 67.9703 35.5595 67.5092 34.7995 66.7492L32.6782 68.8705ZM31.1295 59.0058C30.4294 59.7058 29.7954 60.3353 29.355 60.9126C28.8882 61.5244 28.5 62.2504 28.5 63.1638H31.5C31.5 63.1504 31.5003 63.1303 31.5213 63.0798C31.5474 63.0173 31.606 62.908 31.7401 62.7323C32.0297 62.3527 32.4908 61.8871 33.2508 61.1271L31.1295 59.0058ZM33.2508 65.2005C32.4908 64.4404 32.0297 63.9749 31.7401 63.5953C31.606 63.4196 31.5474 63.3103 31.5213 63.2478C31.5003 63.1973 31.5 63.1772 31.5 63.1638H28.5C28.5 64.0772 28.8882 64.8031 29.355 65.415C29.7954 65.9922 30.4294 66.6217 31.1295 67.3218L33.2508 65.2005ZM52.811 39.4456L60.5545 47.189L62.6758 45.0676L54.9324 37.3242L52.811 39.4456ZM67.3218 40.4216L59.5784 32.6782L57.4571 34.7995L65.2005 42.5429L67.3218 40.4216ZM67.3218 47.189C67.6681 46.8427 67.9815 46.5304 68.2242 46.2522C68.4757 45.9638 68.7244 45.6319 68.8961 45.2174L66.1244 44.0694C66.1294 44.0574 66.1143 44.1072 65.9634 44.2802C65.8036 44.4634 65.5758 44.6923 65.2005 45.0676L67.3218 47.189ZM65.2005 42.5429C65.5758 42.9182 65.8036 43.1472 65.9634 43.3304C66.1143 43.5034 66.1294 43.5532 66.1244 43.5412L68.8961 42.3931C68.7244 41.9786 68.4757 41.6468 68.2242 41.3584C67.9815 41.0801 67.6681 40.7679 67.3218 40.4216L65.2005 42.5429ZM68.8961 45.2174C69.2706 44.3132 69.2706 43.2973 68.8961 42.3931L66.1244 43.5412C66.1945 43.7103 66.1945 43.9003 66.1244 44.0694L68.8961 45.2174ZM60.5545 47.189C60.9007 47.5352 61.213 47.8486 61.4912 48.0913C61.7796 48.3429 62.1115 48.5915 62.526 48.7632L63.674 45.9916C63.686 45.9966 63.6362 45.9814 63.4632 45.8305C63.28 45.6707 63.0511 45.4429 62.6758 45.0676L60.5545 47.189ZM65.2005 45.0676C64.8252 45.4429 64.5962 45.6707 64.413 45.8305C64.24 45.9815 64.1903 45.9966 64.2022 45.9916L65.3503 48.7632C65.7648 48.5915 66.0966 48.3429 66.385 48.0913C66.6633 47.8486 66.9755 47.5352 67.3218 47.189L65.2005 45.0676ZM62.526 48.7632C63.4302 49.1378 64.4461 49.1378 65.3503 48.7632L64.2022 45.9916C64.0331 46.0616 63.8431 46.0616 63.674 45.9916L62.526 48.7632ZM52.811 32.6782C52.4648 33.0245 52.1514 33.3367 51.9087 33.615C51.6571 33.9033 51.4085 34.2352 51.2368 34.6497L54.0084 35.7978C54.0034 35.8097 54.0185 35.76 54.1695 35.587C54.3293 35.4038 54.5571 35.1748 54.9324 34.7995L52.811 32.6782ZM54.9324 37.3242C54.5571 36.9489 54.3293 36.72 54.1695 36.5368C54.0185 36.3638 54.0034 36.314 54.0084 36.326L51.2368 37.474C51.4085 37.8885 51.6571 38.2204 51.9087 38.5088C52.1514 38.787 52.4648 39.0993 52.811 39.4456L54.9324 37.3242ZM51.2368 34.6497C50.8622 35.5539 50.8622 36.5698 51.2368 37.474L54.0084 36.326C53.9384 36.1569 53.9384 35.9669 54.0084 35.7978L51.2368 34.6497ZM54.9324 34.7995C55.3077 34.4242 55.5366 34.1964 55.7198 34.0366C55.8928 33.8857 55.9426 33.8706 55.9306 33.8756L54.7826 31.1039C54.3681 31.2756 54.0362 31.5243 53.7478 31.7758C53.4696 32.0185 53.1573 32.3319 52.811 32.6782L54.9324 34.7995ZM59.5784 32.6782C59.2321 32.3319 58.9199 32.0185 58.6416 31.7758C58.3532 31.5243 58.0214 31.2756 57.6069 31.1039L56.4588 33.8756C56.4468 33.8706 56.4966 33.8857 56.6696 34.0366C56.8528 34.1964 57.0818 34.4242 57.4571 34.7995L59.5784 32.6782ZM55.9306 33.8756C56.0997 33.8055 56.2897 33.8055 56.4588 33.8756L57.6069 31.1039C56.7027 30.7294 55.6868 30.7294 54.7826 31.1039L55.9306 33.8756ZM59.0058 31.1295L57.4571 32.6782L59.5784 34.7995L61.1271 33.2508L59.0058 31.1295ZM67.3218 42.5429L68.8705 40.9942L66.7492 38.8729L65.2005 40.4216L67.3218 42.5429ZM68.8705 32.6782L67.3218 31.1295L65.2005 33.2508L66.7492 34.7995L68.8705 32.6782ZM68.8705 40.9942C69.5706 40.2942 70.2046 39.6647 70.645 39.0874C71.1118 38.4756 71.5 37.7496 71.5 36.8362L68.5 36.8362C68.5 36.8496 68.4997 36.8697 68.4787 36.9202C68.4526 36.9827 68.394 37.092 68.2599 37.2677C67.9703 37.6473 67.5092 38.1129 66.7492 38.8729L68.8705 40.9942ZM66.7492 34.7995C67.5092 35.5595 67.9703 36.0251 68.2599 36.4047C68.394 36.5804 68.4526 36.6897 68.4787 36.7522C68.4997 36.8027 68.5 36.8228 68.5 36.8362L71.5 36.8362C71.5 35.9228 71.1118 35.1969 70.645 34.585C70.2046 34.0078 69.5706 33.3783 68.8705 32.6782L66.7492 34.7995ZM61.1271 33.2508C61.8871 32.4908 62.3527 32.0297 62.7323 31.7401C62.908 31.606 63.0173 31.5474 63.0798 31.5213C63.1303 31.5003 63.1504 31.5 63.1638 31.5V28.5C62.2504 28.5 61.5244 28.8882 60.9126 29.355C60.3353 29.7954 59.7058 30.4294 59.0058 31.1295L61.1271 33.2508ZM67.3218 31.1295C66.6217 30.4294 65.9922 29.7954 65.415 29.355C64.8031 28.8882 64.0772 28.5 63.1638 28.5V31.5C63.1772 31.5 63.1973 31.5003 63.2478 31.5213C63.3103 31.5474 63.4196 31.606 63.5953 31.7401C63.9749 32.0297 64.4404 32.4908 65.2005 33.2508L67.3218 31.1295Z" fill="none"/>
</svg>
