<svg width="100" height="100" viewBox="0 0 100 100" fill="none" xmlns="http://www.w3.org/2000/svg">


<path d="M53.8214 42.7368C54.424 43.2012 54.549 43.9784 54.799 45.5329L55.715 51.2291C56.0393 53.2459 56.2015 54.2543 55.5623 54.909C54.0495 56.4585 45.7622 56.2656 44.4377 54.909C43.7985 54.2543 43.9607 53.2459 44.285 51.2291L45.201 45.5329C45.451 43.9784 45.576 43.2012 46.1786 42.7368C47.4208 41.7798 52.5137 41.7293 53.8214 42.7368Z" stroke="currentColor" stroke-width="3" stroke-linecap="round" stroke-linejoin="round" fill="none"/>
<path d="M41 64C41.0844 63.7469 41.1266 63.6203 41.1717 63.508C41.7481 62.0742 43.0988 61.1007 44.6412 61.0073C44.762 61 44.8954 61 45.1623 61H54.8377C55.1046 61 55.238 61 55.3588 61.0073C56.9012 61.1007 58.2519 62.0742 58.8283 63.508C58.8734 63.6203 58.9156 63.7469 59 64" stroke="currentColor" stroke-width="3" stroke-linecap="round" stroke-linejoin="round" fill="none"/>
<path d="M50 61V70M50 70H64M50 70H36" stroke="currentColor" stroke-width="3" stroke-linecap="round" stroke-linejoin="round" fill="none"/>
<path d="M68 54V46.8062C68 45.4167 68 44.7219 67.7745 44.0791C67.549 43.4363 67.115 42.8938 66.2469 41.8087L62.402 37.0024C61.2218 35.5272 60.6317 34.7896 59.8103 34.3948C58.9889 34 58.0442 34 56.155 34H43.845C41.9558 34 41.0111 34 40.1897 34.3948C39.3683 34.7896 38.7782 35.5272 37.598 37.0024L33.7531 41.8087C32.885 42.8938 32.451 43.4363 32.2255 44.0791C32 44.7219 32 45.4167 32 46.8062V54" stroke="currentColor" stroke-width="3" stroke-linecap="round" stroke-linejoin="round" fill="none"/>
<path d="M32 50H38M68 50H62" stroke="currentColor" stroke-width="3" stroke-linecap="round" stroke-linejoin="round" fill="none"/>
<path d="M50 42V30" stroke="currentColor" stroke-width="3" stroke-linecap="round" stroke-linejoin="round" fill="none"/>
</svg>
