<svg width="100" height="100" viewBox="0 0 100 100" fill="none" xmlns="http://www.w3.org/2000/svg">


<path d="M48.7143 59C49.2292 58.5678 49.8188 58.2287 50.4455 58.0204C54.5 56.75 52.25 53.7129 55.9273 52.5148C58.7651 51.5903 57.8948 50.0308 59 48.7143M46.1427 53.857C46.5392 53.5432 47.0127 53.3202 47.5351 53.2163C49.686 52.8065 49.3595 49.5224 51.6435 49.0841C53.2151 48.7665 53.0397 47.1753 53.857 46.1427M41 51.2857C41.2098 50.4336 42.1045 50.5144 42.7312 50.3061C46.625 48.875 44.375 45.5 48.2131 44.8005C51.125 44.375 50 42.125 51.2857 41" stroke="currentColor" stroke-width="3" stroke-linecap="round" fill="none"/>
<path d="M42.2727 71.0607C42.8585 71.6464 43.8082 71.6464 44.394 71.0607C44.9798 70.4749 44.9798 69.5251 44.394 68.9393L42.2727 71.0607ZM42 68.6667L40.9393 69.7273H40.9393L42 68.6667ZM31.0607 55.606C30.4749 55.0202 29.5251 55.0202 28.9393 55.606C28.3536 56.1918 28.3536 57.1415 28.9393 57.7273L31.0607 55.606ZM39.7556 55.4741L40.23 54.0511L40.23 54.0511L39.7556 55.4741ZM35.4855 54.6444L35.1408 53.1845H35.1408L35.4855 54.6444ZM44.5259 60.2444L45.9489 59.77L45.9489 59.77L44.5259 60.2444ZM45.3556 64.5145L43.8957 64.1699L45.3556 64.5145ZM68.9393 44.394C69.5251 44.9798 70.4749 44.9798 71.0607 44.394C71.6464 43.8082 71.6464 42.8585 71.0607 42.2727L68.9393 44.394ZM68.6667 42L69.7273 40.9393V40.9393L68.6667 42ZM57.7273 28.9393C57.1415 28.3536 56.1918 28.3536 55.606 28.9393C55.0202 29.5251 55.0202 30.4749 55.606 31.0607L57.7273 28.9393ZM55.4741 39.7556L56.8971 39.2813L55.4741 39.7556ZM54.6444 35.4855L56.1043 35.8301L54.6444 35.4855ZM60.2444 44.5259L60.7187 43.1029L60.2444 44.5259ZM64.5145 45.3556L64.1699 43.8957H64.1699L64.5145 45.3556ZM44.394 68.9393L43.0607 67.606L40.9393 69.7273L42.2727 71.0607L44.394 68.9393ZM43.0607 67.606L32.394 56.9393L30.2727 59.0607L40.9393 69.7273L43.0607 67.606ZM32.394 56.9393L31.0607 55.606L28.9393 57.7273L30.2727 59.0607L32.394 56.9393ZM43.0607 69.7273L43.7645 69.0235L41.6432 66.9022L40.9393 67.606L43.0607 69.7273ZM30.9765 56.2355L30.2727 56.9393L32.394 59.0607L33.0978 58.3568L30.9765 56.2355ZM40.23 54.0511C39.1834 53.7022 38.2914 53.403 37.5301 53.2337C36.7349 53.057 35.9599 52.9912 35.1408 53.1845L35.8301 56.1043C36.0537 56.0515 36.3379 56.0419 36.8792 56.1623C37.4544 56.2901 38.1762 56.5288 39.2813 56.8971L40.23 54.0511ZM33.0978 58.3568C33.9215 57.5332 34.4604 56.9969 34.9177 56.6253C35.348 56.2756 35.6065 56.1571 35.8301 56.1043L35.1408 53.1845C34.3217 53.3779 33.658 53.7833 33.0258 54.2971C32.4205 54.7889 31.7566 55.4554 30.9765 56.2355L33.0978 58.3568ZM45.9489 59.77C45.4113 58.1573 45.018 56.8595 44.0792 55.9208L41.9579 58.0421C42.2782 58.3624 42.4701 58.8203 43.1029 60.7187L45.9489 59.77ZM39.2813 56.8971C41.1797 57.5299 41.6376 57.7218 41.9579 58.0421L44.0792 55.9208C43.1405 54.982 41.8427 54.5887 40.23 54.0511L39.2813 56.8971ZM43.7645 69.0235C44.5446 68.2434 45.2111 67.5795 45.7029 66.9742C46.2167 66.342 46.6221 65.6783 46.8155 64.8592L43.8957 64.1699C43.8429 64.3935 43.7244 64.652 43.3747 65.0823C43.0031 65.5396 42.4668 66.0785 41.6432 66.9022L43.7645 69.0235ZM43.1029 60.7187C43.4712 61.8238 43.7099 62.5456 43.8377 63.1208C43.9581 63.6621 43.9485 63.9463 43.8957 64.1699L46.8155 64.8592C47.0088 64.0401 46.943 63.2651 46.7663 62.4699C46.597 61.7085 46.2978 60.8166 45.9489 59.77L43.1029 60.7187ZM71.0607 42.2727L69.7273 40.9393L67.606 43.0607L68.9393 44.394L71.0607 42.2727ZM69.7273 40.9393L59.0607 30.2727L56.9393 32.394L67.606 43.0607L69.7273 40.9393ZM59.0607 30.2727L57.7273 28.9393L55.606 31.0607L56.9393 32.394L59.0607 30.2727ZM67.606 40.9393L66.9022 41.6432L69.0235 43.7645L69.7273 43.0607L67.606 40.9393ZM58.3568 33.0978L59.0607 32.394L56.9393 30.2727L56.2355 30.9765L58.3568 33.0978ZM56.8971 39.2813C56.5288 38.1762 56.2901 37.4544 56.1623 36.8792C56.0419 36.3379 56.0515 36.0537 56.1043 35.8301L53.1845 35.1408C52.9912 35.9599 53.057 36.7349 53.2337 37.5301C53.403 38.2914 53.7022 39.1833 54.0511 40.23L56.8971 39.2813ZM56.2355 30.9765C55.4554 31.7566 54.7889 32.4205 54.2971 33.0258C53.7833 33.658 53.3779 34.3217 53.1845 35.1408L56.1043 35.8301C56.1571 35.6065 56.2756 35.348 56.6253 34.9177C56.9969 34.4604 57.5332 33.9215 58.3568 33.0978L56.2355 30.9765ZM60.7187 43.1029C58.8202 42.4701 58.3624 42.2782 58.0421 41.9579L55.9208 44.0792C56.8595 45.018 58.1573 45.4113 59.77 45.9489L60.7187 43.1029ZM54.0511 40.23C54.5887 41.8427 54.982 43.1405 55.9208 44.0792L58.0421 41.9579C57.7218 41.6376 57.5299 41.1798 56.8971 39.2813L54.0511 40.23ZM66.9022 41.6432C66.0785 42.4668 65.5396 43.0031 65.0823 43.3747C64.652 43.7244 64.3935 43.8429 64.1699 43.8957L64.8592 46.8155C65.6783 46.6221 66.342 46.2167 66.9742 45.7029C67.5795 45.2111 68.2434 44.5446 69.0235 43.7645L66.9022 41.6432ZM59.77 45.9489C60.8167 46.2978 61.7086 46.5971 62.4699 46.7663C63.2651 46.943 64.0401 47.0088 64.8592 46.8155L64.1699 43.8957C63.9463 43.9485 63.6621 43.9581 63.1208 43.8377C62.5456 43.7099 61.8238 43.4712 60.7187 43.1029L59.77 45.9489Z" fill="none"/>
</svg>
