<svg width="100" height="100" viewBox="0 0 100 100" fill="none" xmlns="http://www.w3.org/2000/svg">


<path d="M30.6842 65.6312C34.1211 63.1527 35.9715 57.2396 36.9208 52.6953C37.1961 51.3776 37.3133 48.7071 38.827 48.0999C39.6925 47.7528 40.8279 48.3324 43.0987 49.4915C44.8438 50.3823 45.7164 50.8276 45.9418 51.7674C46.4821 54.0202 42.8382 54.8892 43.7041 57.1884C44.6706 59.755 44.0142 60.505 42.1363 62.1878C40.7002 63.4748 42.5678 65.1021 41.7365 66.5174C39.6673 70.0404 36.398 71.0893 32.0724 68.7429C30.9264 68.1213 28.9489 66.8826 30.6842 65.6312Z" stroke="currentColor" stroke-width="3" stroke-linejoin="round" fill="none"/>
<path d="M69.3158 65.6312C65.8789 63.1527 64.0285 57.2396 63.0792 52.6953C62.8039 51.3776 62.6867 48.7071 61.173 48.0999C60.3075 47.7528 59.1721 48.3324 56.9013 49.4915C55.1562 50.3823 54.2836 50.8276 54.0582 51.7674C53.5203 54.0102 57.1543 54.9092 56.2959 57.1884C55.3294 59.755 55.9858 60.505 57.8637 62.1878C59.2998 63.4748 57.4322 65.1021 58.2635 66.5174C60.3327 70.0404 63.602 71.0893 67.9276 68.7429C69.0736 68.1213 71.0511 66.8826 69.3158 65.6312Z" stroke="currentColor" stroke-width="3" stroke-linejoin="round" fill="none"/>
<path d="M55 35C55 37.7614 52.7614 40 50 40C47.2386 40 45 37.7614 45 35C45 32.2386 47.2386 30 50 30C52.7614 30 55 32.2386 55 35Z" stroke="currentColor" stroke-width="3" fill="none"/>
<path d="M55.5529 49.3947C55.7708 50.1939 56.5954 50.6651 57.3947 50.4471C58.1939 50.2292 58.6651 49.4046 58.4471 48.6053L55.5529 49.3947ZM58.4471 48.6053L55.4471 37.6053L52.5529 38.3947L55.5529 49.3947L58.4471 48.6053Z" fill="none"/>
<path d="M43 49L44.5 43.5" stroke="currentColor" stroke-width="3" stroke-linecap="round" fill="none"/>
</svg>
