<svg width="100" height="100" viewBox="0 0 100 100" fill="none" xmlns="http://www.w3.org/2000/svg">


<path d="M55.3793 63H44.6207C43.261 63 42.0055 63.7691 41.3308 65.0154L40.2524 67.0077C39.5307 68.341 40.4427 70 41.8973 70H58.1026C59.5573 70 60.4693 68.341 59.7476 67.0077L58.6692 65.0154C57.9945 63.7691 56.739 63 55.3793 63Z" stroke="currentColor" stroke-width="3" stroke-linecap="round" stroke-linejoin="round" fill="none"/>
<path d="M50 50V63" stroke="currentColor" stroke-width="3" stroke-linecap="round" stroke-linejoin="round" fill="none"/>
<path d="M50 30C45.0294 30 41 32.3561 41 37.6924C41 42.3624 45.021 43.4978 47.0304 47.8978C47.3189 48.5296 47.4632 48.8455 47.5563 48.9873C47.9662 49.6112 48.359 49.8618 49.1033 49.9744C49.2725 49.9999 49.5149 50 49.9998 50C50.4847 50 50.7271 50.0001 50.8962 49.9745C51.6407 49.8622 52.0323 49.6126 52.4428 48.9889C52.536 48.8473 52.6808 48.5309 52.9705 47.8982C54.9802 43.5083 59 42.4041 59 37.6924C59 32.3077 54.9706 30 50 30Z" stroke="currentColor" stroke-width="3" fill="none"/>
</svg>
