<svg width="100" height="100" viewBox="0 0 100 100" fill="none" xmlns="http://www.w3.org/2000/svg">


<path d="M64.2025 62H41.926C36.0583 62 33.1244 62 31.3361 59.7656C27.9419 55.5245 31.8094 44.2476 34.1522 40C34.9465 44.8 43.123 44.6667 46.1015 44C44.117 40.0024 46.7661 38.6683 48.0907 38.0012L48.093 38C54 45 66.6297 48.808 69.7248 56.4377C71.0618 59.7335 67.2524 62 64.2025 62Z" stroke="currentColor" stroke-width="3" stroke-linecap="round" stroke-linejoin="round" fill="none"/>
<path d="M30 54C38.3293 56.8588 43.4619 57.6884 50.0434 55.6079C52.0376 54.9774 53.0348 54.6622 53.6563 54.705C54.2778 54.7477 55.5457 55.339 58.0816 56.5216C61.2485 57.9985 65.5942 58.8487 70 56.7167" stroke="currentColor" stroke-width="3" stroke-linejoin="round" fill="none"/>
<path d="M53 45L56 42" stroke="currentColor" stroke-width="3" stroke-linecap="round" stroke-linejoin="round" fill="none"/>
<path d="M57 48L60 45" stroke="currentColor" stroke-width="3" stroke-linecap="round" stroke-linejoin="round" fill="none"/>
</svg>
