<svg width="100" height="100" viewBox="0 0 100 100" fill="none" xmlns="http://www.w3.org/2000/svg">


<path d="M41.9949 37C41.9949 40.866 45.5766 44 49.9949 44C54.4132 44 57.9949 40.866 57.9949 37C57.9949 33.134 54.4132 30 49.9949 30C45.5766 30 41.9949 33.134 41.9949 37Z" stroke="currentColor" stroke-width="3" fill="none"/>
<path d="M32.1035 56.103L33.5929 56.2811L32.1035 56.103ZM37.893 56.103L39.3824 55.9248L37.893 56.103ZM38.2402 53.5476L39.6239 54.1269L38.2402 53.5476ZM38.9886 65.3419L37.4911 65.4297L38.9886 65.3419ZM31.008 65.3419L29.5106 65.2542V65.2542L31.008 65.3419ZM31.7563 53.5476L30.3727 54.1269L30.3727 54.1269L31.7563 53.5476ZM31.1436 50.917L29.8153 50.2202L29.8114 50.2277L31.1436 50.917ZM38.8529 50.917L40.1852 50.2277L40.1813 50.2202L38.8529 50.917ZM33.4965 50C33.4965 50.8284 34.1681 51.5 34.9965 51.5C35.825 51.5 36.4965 50.8284 36.4965 50H33.4965ZM49.9965 31.5C50.825 31.5 51.4965 30.8284 51.4965 30C51.4965 29.1716 50.825 28.5 49.9965 28.5V31.5ZM36.7973 35.0975C36.2997 35.7598 36.4332 36.7002 37.0955 37.1978C37.7578 37.6954 38.6982 37.5619 39.1958 36.8995L36.7973 35.0975ZM36.9817 41.3991C37.2021 40.6005 36.7334 39.7745 35.9348 39.5541C35.1363 39.3337 34.3102 39.8024 34.0898 40.6009L36.9817 41.3991ZM30.3727 54.1269C30.6506 54.7907 30.68 54.8946 30.6915 54.9792C30.7038 55.0696 30.702 55.1904 30.6142 55.9248L33.5929 56.2811C33.6639 55.6875 33.7397 55.1306 33.6642 54.5753C33.588 54.0141 33.3644 53.5044 33.14 52.9684L30.3727 54.1269ZM39.3824 55.9248C39.2946 55.1904 39.2928 55.0696 39.3051 54.9792C39.3166 54.8946 39.346 54.7907 39.6239 54.1269L36.8566 52.9684C36.6322 53.5044 36.4086 54.0141 36.3324 54.5753C36.2569 55.1306 36.3327 55.6875 36.4037 56.2811L39.3824 55.9248ZM40.486 65.2542C40.3023 62.1188 39.7338 58.8623 39.3824 55.9248L36.4037 56.2811C36.7836 59.4577 37.3138 62.4032 37.4911 65.4297L40.486 65.2542ZM30.6142 55.9248C30.2628 58.8623 29.6943 62.1188 29.5106 65.2542L32.5054 65.4297C32.6828 62.4032 33.213 59.4577 33.5929 56.2811L30.6142 55.9248ZM34.9983 68.5C33.7144 68.5 32.3882 67.4303 32.5054 65.4297L29.5106 65.2542C29.2971 68.8981 31.9098 71.5 34.9983 71.5V68.5ZM34.9983 71.5C38.0868 71.5 40.6995 68.8981 40.486 65.2542L37.4911 65.4297C37.6084 67.4303 36.2822 68.5 34.9983 68.5V71.5ZM32.472 51.6138C32.3005 51.9408 32.0707 51.9965 32.234 51.9206C32.3326 51.8748 32.5202 51.8095 32.81 51.7435C33.3815 51.6134 34.1568 51.5238 34.9671 51.5041C35.781 51.4843 36.5493 51.5371 37.1163 51.6536C37.4021 51.7123 37.5808 51.7761 37.6725 51.8212C37.7862 51.8772 37.6441 51.8416 37.5246 51.6138L40.1813 50.2202C39.8797 49.6453 39.3773 49.3167 38.9976 49.1298C38.5959 48.932 38.1483 48.803 37.7201 48.715C36.8589 48.5381 35.8482 48.4818 34.8942 48.5049C33.9368 48.5282 32.9555 48.6336 32.144 48.8184C31.7423 48.9099 31.3317 49.032 30.9707 49.1996C30.6745 49.3371 30.1238 49.632 29.8153 50.2202L32.472 51.6138ZM33.14 52.9684C33.0574 52.7712 32.9315 52.5103 32.8514 52.3366C32.7561 52.1305 32.676 51.9459 32.6167 51.7756C32.5556 51.6002 32.5354 51.4924 32.5314 51.4401C32.5276 51.3906 32.5444 51.4738 32.4758 51.6064L29.8114 50.2277C29.3049 51.2066 29.6038 52.2462 29.7838 52.7628C29.8921 53.0736 30.0213 53.3639 30.1278 53.5946C30.2494 53.8577 30.3177 53.9955 30.3727 54.1269L33.14 52.9684ZM39.6239 54.1269C39.6789 53.9955 39.7472 53.8577 39.8688 53.5946C39.9753 53.3639 40.1045 53.0736 40.2128 52.7628C40.3928 52.2462 40.6917 51.2066 40.1852 50.2277L37.5207 51.6064C37.4521 51.4738 37.4689 51.3906 37.4652 51.4401C37.4612 51.4924 37.441 51.6002 37.3799 51.7756C37.3205 51.9459 37.2405 52.1305 37.1452 52.3366C37.065 52.5103 36.9391 52.7712 36.8566 52.9684L39.6239 54.1269ZM33.4965 45V50H36.4965V45H33.4965ZM49.9965 28.5C44.5981 28.5 39.8051 31.0941 36.7973 35.0975L39.1958 36.8995C41.6613 33.6179 45.5814 31.5 49.9965 31.5V28.5ZM34.0898 40.6009C33.7028 42.0031 33.4965 43.4787 33.4965 45H36.4965C36.4965 43.7509 36.6658 42.5437 36.9817 41.3991L34.0898 40.6009Z" fill="none"/>
<path d="M62.107 56.103L63.5964 56.2811L62.107 56.103ZM67.8966 56.103L69.3859 55.9248L67.8966 56.103ZM68.2437 53.5476L69.6274 54.1269L68.2437 53.5476ZM68.9921 65.3419L67.4946 65.4297L68.9921 65.3419ZM61.0115 65.3419L59.5141 65.2542V65.2542L61.0115 65.3419ZM61.7599 53.5476L60.3762 54.1269L60.3762 54.1269L61.7599 53.5476ZM61.1471 50.917L59.8188 50.2202L59.8149 50.2277L61.1471 50.917ZM68.8565 50.917L70.1887 50.2277L70.1848 50.2202L68.8565 50.917ZM63.4983 50C63.4983 50.8284 64.1699 51.5 64.9983 51.5C65.8267 51.5 66.4983 50.8284 66.4983 50H63.4983ZM49.9983 28.5C49.1699 28.5 48.4983 29.1716 48.4983 30C48.4983 30.8284 49.1699 31.5 49.9983 31.5V28.5ZM60.3762 54.1269C60.6541 54.7907 60.6835 54.8946 60.695 54.9792C60.7073 55.0696 60.7055 55.1904 60.6177 55.9248L63.5964 56.2811C63.6674 55.6875 63.7432 55.1306 63.6677 54.5753C63.5915 54.0141 63.3679 53.5044 63.1435 52.9684L60.3762 54.1269ZM69.3859 55.9248C69.2981 55.1904 69.2963 55.0696 69.3086 54.9792C69.3201 54.8946 69.3495 54.7907 69.6274 54.1269L66.8601 52.9684C66.6357 53.5044 66.4121 54.0141 66.3359 54.5753C66.2604 55.1306 66.3362 55.6875 66.4072 56.2811L69.3859 55.9248ZM70.4895 65.2542C70.3058 62.1188 69.7373 58.8623 69.3859 55.9248L66.4072 56.2811C66.7871 59.4577 67.3173 62.4032 67.4946 65.4297L70.4895 65.2542ZM60.6177 55.9248C60.2663 58.8623 59.6978 62.1188 59.5141 65.2542L62.509 65.4297C62.6863 62.4032 63.2165 59.4577 63.5964 56.2811L60.6177 55.9248ZM65.0018 68.5C63.7179 68.5 62.3917 67.4303 62.509 65.4297L59.5141 65.2542C59.3006 68.8981 61.9133 71.5 65.0018 71.5V68.5ZM65.0018 71.5C68.0903 71.5 70.703 68.8981 70.4895 65.2542L67.4946 65.4297C67.6119 67.4303 66.2857 68.5 65.0018 68.5V71.5ZM62.4755 51.6138C62.304 51.9408 62.0742 51.9965 62.2375 51.9206C62.3361 51.8748 62.5237 51.8095 62.8135 51.7435C63.385 51.6134 64.1603 51.5238 64.9706 51.5041C65.7845 51.4843 66.5528 51.5371 67.1198 51.6536C67.4056 51.7123 67.5843 51.7761 67.676 51.8212C67.7897 51.8772 67.6476 51.8416 67.5281 51.6138L70.1848 50.2202C69.8832 49.6453 69.3808 49.3167 69.0011 49.1298C68.5994 48.932 68.1518 48.803 67.7236 48.715C66.8624 48.5381 65.8517 48.4818 64.8977 48.5049C63.9403 48.5282 62.959 48.6336 62.1475 48.8184C61.7458 48.9099 61.3352 49.032 60.9742 49.1996C60.678 49.3371 60.1273 49.632 59.8188 50.2202L62.4755 51.6138ZM63.1435 52.9684C63.061 52.7712 62.9351 52.5103 62.8549 52.3366C62.7596 52.1305 62.6796 51.9459 62.6202 51.7756C62.5591 51.6002 62.5389 51.4924 62.5349 51.4401C62.5311 51.3906 62.5479 51.4738 62.4794 51.6064L59.8149 50.2277C59.3084 51.2066 59.6073 52.2462 59.7873 52.7628C59.8956 53.0736 60.0248 53.3639 60.1313 53.5946C60.2529 53.8577 60.3212 53.9955 60.3762 54.1269L63.1435 52.9684ZM69.6274 54.1269C69.6824 53.9955 69.7507 53.8577 69.8723 53.5946C69.9788 53.3639 70.108 53.0736 70.2163 52.7628C70.3963 52.2462 70.6952 51.2066 70.1887 50.2277L67.5242 51.6064C67.4557 51.4738 67.4725 51.3906 67.4687 51.4401C67.4647 51.4924 67.4445 51.6002 67.3834 51.7756C67.324 51.9459 67.244 52.1305 67.1487 52.3366C67.0686 52.5103 66.9427 52.7712 66.8601 52.9684L69.6274 54.1269ZM63.4983 45V50H66.4983V45H63.4983ZM49.9983 31.5C57.4541 31.5 63.4983 37.5442 63.4983 45H66.4983C66.4983 35.8873 59.111 28.5 49.9983 28.5V31.5Z" fill="none"/>
</svg>
