<svg width="100" height="100" viewBox="0 0 100 100" fill="none" xmlns="http://www.w3.org/2000/svg">


<path d="M39 36H56C59.7712 36 61.6569 36 62.8284 37.1716C64 38.3431 64 40.2288 64 44V50C64 53.7712 64 55.6569 62.8284 56.8284C61.6569 58 59.7712 58 56 58L50 58C46.2288 58 44.3431 58 43.1716 56.8284C42 55.6569 42 53.7712 42 50V42M39 36C37.3431 36 36 37.3431 36 39V42H42M39 36C40.6569 36 42 37.3431 42 39V42M60 58C60 61.7712 60 63.6569 58.8284 64.8284C57.6569 66 55.7712 66 52 66H44C40.2288 66 38.3431 66 37.1716 64.8284C36 63.6569 36 61.7712 36 58V48" stroke="currentColor" stroke-width="3" stroke-linecap="round" stroke-linejoin="round" fill="none"/>
<path d="M70 34V36C70 37.8638 70 38.7956 69.6955 39.5307C69.2895 40.5108 68.5108 41.2895 67.5307 41.6955C66.7957 42 65.8638 42 64 42M30 34V36C30 37.8638 30 38.7956 30.3045 39.5307C30.7105 40.5108 31.4892 41.2895 32.4693 41.6955C33.2044 42 34.1362 42 36 42" stroke="currentColor" stroke-width="3" stroke-linecap="round" stroke-linejoin="round" fill="none"/>
</svg>
