<svg width="100" height="100" viewBox="0 0 100 100" fill="none" xmlns="http://www.w3.org/2000/svg">


<path d="M39.3652 36C36.6362 36.1233 34.9501 36.5072 33.7574 37.702C32 39.4624 32 42.2957 32 47.9622V57.9794C32 63.646 32 66.4792 33.7574 68.2396C35.5147 70 38.3431 70 44 70H56C61.6569 70 64.4853 70 66.2426 68.2396C68 66.4792 68 63.646 68 57.9794V47.9622C68 42.2957 68 39.4624 66.2426 37.702C65.0499 36.5072 63.3638 36.1233 60.6348 36" stroke="currentColor" stroke-width="3" stroke-linejoin="round" fill="none"/>
<path d="M40.0506 39.0805C39.0895 35.3207 38.6089 33.4408 39.39 32.0618C39.598 31.6947 39.8637 31.3618 40.1774 31.0755C41.356 30 43.3375 30 47.3004 30H52.6996C56.6625 30 58.644 30 59.8226 31.0755C60.1363 31.3618 60.402 31.6947 60.61 32.0618C61.3911 33.4408 60.9105 35.3207 59.9494 39.0805C59.1831 42.078 58.8 43.5767 57.7754 44.5631C57.4966 44.8315 57.1872 45.0678 56.8532 45.2672C55.6262 46 54.0465 46 50.8871 46H49.1129C45.9535 46 44.3738 46 43.1468 45.2672C42.8128 45.0678 42.5034 44.8315 42.2246 44.5631C41.2 43.5767 40.8169 42.078 40.0506 39.0805Z" stroke="currentColor" stroke-width="3" stroke-linejoin="round" fill="none"/>
<path d="M46 62H54" stroke="currentColor" stroke-width="3" stroke-linecap="round" stroke-linejoin="round" fill="none"/>
<path d="M49 46L51 40" stroke="currentColor" stroke-width="3" stroke-linecap="round" stroke-linejoin="round" fill="none"/>
</svg>
