<svg width="100" height="100" viewBox="0 0 100 100" fill="none" xmlns="http://www.w3.org/2000/svg">


<path d="M34 54.1391C36.029 54.1391 38.8624 53.5369 40.6389 54.8386L44.1638 57.4215C45.4733 58.3811 46.8917 58.0651 48.3529 57.8356C50.2778 57.5334 52 59.1751 52 61.3123C52 61.8964 47.8545 63.3809 47.2552 63.6632C46.0781 64.2177 44.7259 64.0812 43.6604 63.3004L39.6842 60.3868" stroke="currentColor" stroke-width="3" stroke-linecap="round" stroke-linejoin="round" fill="none"/>
<path d="M52 60L60.182 56.2191C61.6489 55.708 63.2661 56.1071 64.3595 57.25L65.701 58.6525C66.1804 59.1537 66.0677 59.9953 65.475 60.3395L49.7658 69.463C48.8194 70.0126 47.7029 70.1467 46.6619 69.8358L34 66.0539" stroke="currentColor" stroke-width="3" stroke-linecap="round" stroke-linejoin="round" fill="none"/>
<path d="M50.0039 50C50.0039 50 54.2039 45.5228 54.2039 40C54.2039 34.4772 50.0039 30 50.0039 30C50.0039 30 45.8039 34.4772 45.8039 40C45.8039 45.5228 50.0039 50 50.0039 50ZM50.0039 50C50.0039 50 56.1379 49.8633 60.0039 45.9184C63.8699 41.9735 64.0039 35.7143 64.0039 35.7143C64.0039 35.7143 61.465 35.7709 58.6246 36.8617M50.0039 50C50.0039 50 43.8699 49.8633 40.0039 45.9184C36.1379 41.9735 36.0039 35.7143 36.0039 35.7143C36.0039 35.7143 38.5428 35.7709 41.3833 36.8617" stroke="currentColor" stroke-width="3" stroke-linecap="round" stroke-linejoin="round" fill="none"/>
</svg>
