<svg width="100" height="100" viewBox="0 0 100 100" fill="none" xmlns="http://www.w3.org/2000/svg">


<path d="M55.0002 35C55.0002 36.6569 53.6571 38 52.0002 38C50.3434 38 49.0002 36.6569 49.0002 35C49.0002 33.3431 50.3434 32 52.0002 32C53.6571 32 55.0002 33.3431 55.0002 35Z" stroke="currentColor" stroke-width="3" fill="none"/>
<path d="M64 43.7812L53.9554 42.5828M64 68L63.0876 61.0602C62.5806 57.2042 62.3271 55.2762 60.983 54.2596C59.6389 53.2429 57.7444 53.5463 53.9554 54.153L50.2804 54.7415M53.9554 42.5828L50.4461 42.1642C48.8408 41.9726 48.0382 41.8769 47.4291 42.2884C46.82 42.6999 46.598 43.4879 46.154 45.0641L44.8174 49.808C44.0464 52.5447 43.6609 53.9131 44.3839 54.7415C45.107 55.5699 46.4931 55.3479 49.2653 54.904L50.2804 54.7415M53.9554 42.5828L50.2804 54.7415" stroke="currentColor" stroke-width="3" stroke-linecap="round" stroke-linejoin="round" fill="none"/>
<path d="M46 60L44.8944 62.2111C44.3138 63.3723 43.3723 64.3138 42.2111 64.8944L36 68" stroke="currentColor" stroke-width="3" stroke-linecap="round" stroke-linejoin="round" fill="none"/>
</svg>
