<svg width="100" height="100" viewBox="0 0 100 100" fill="none" xmlns="http://www.w3.org/2000/svg">


<path d="M60 35C60 36.6569 58.6569 38 57 38C55.3431 38 54 36.6569 54 35C54 33.3431 55.3431 32 57 32C58.6569 32 60 33.3431 60 35Z" stroke="currentColor" stroke-width="3" fill="none"/>
<path d="M56 68L54.6718 62.7681C54.2322 61.0366 53.323 59.4553 52.0414 58.1932L49 55.1981M38 48.3052C40 44.3657 43.0753 42.083 50 42.0011M50 42.0011C50.4373 41.996 51.0888 41.9944 51.7397 41.9945C52.7494 41.9947 53.2542 41.9948 53.6565 42.1827C54.0587 42.3706 54.4712 42.8635 55.2963 43.8494C55.5327 44.1318 55.7755 44.3849 56 44.5533M50 42.0011L47.4618 45.9175C46.0663 48.0708 45.3686 49.1474 45.3414 50.2777C45.3293 50.7812 45.4123 51.2825 45.5863 51.7552C45.9767 52.8163 46.9845 53.6102 49 55.1981M56 44.5533C58.3095 46.2851 61.9253 46.9826 66 42.3967M56 44.5533L49 55.1981" stroke="currentColor" stroke-width="3" stroke-linecap="round" stroke-linejoin="round" fill="none"/>
<path d="M34 61.4605L35.3564 61.7832C38.8133 62.6056 42.4065 61.0329 44 58" stroke="currentColor" stroke-width="3" stroke-linecap="round" stroke-linejoin="round" fill="none"/>
</svg>
