<svg width="100" height="100" viewBox="0 0 100 100" fill="none" xmlns="http://www.w3.org/2000/svg">


<path d="M43.9999 35C43.9999 36.6569 42.6567 38 40.9999 38C39.343 38 37.9999 36.6569 37.9999 35C37.9999 33.3431 39.343 32 40.9999 32C42.6567 32 43.9999 33.3431 43.9999 35Z" stroke="currentColor" stroke-width="3" fill="none"/>
<path d="M51.9999 40L47.0448 42.2321C46.4708 42.5576 46.1838 42.7204 45.8629 42.7884C45.542 42.8563 45.209 42.8248 44.5429 42.7619L41.6975 42.4929M38.7558 68V60.0679C38.7558 59.1963 38.7558 58.7604 38.5694 58.3773C38.383 57.9942 38.033 57.7106 37.3329 57.1434L36.3789 56.3704M41.6975 42.4929L38.852 42.2239C37.3377 42.0808 36.5805 42.0092 35.9889 42.3607C35.3972 42.7123 35.1372 43.3883 34.6171 44.7403L32.5888 50.0128C32.1225 51.2249 31.8894 51.831 32.051 52.4128C32.2125 52.9946 32.7305 53.4143 33.7664 54.2537L36.3789 56.3704M41.6975 42.4929L36.3789 56.3704" stroke="currentColor" stroke-width="3" stroke-linecap="round" stroke-linejoin="round" fill="none"/>
<path d="M65.9999 44C64.8328 44 63.7338 43.4589 63.0336 42.5395L60.98 39.8432C60.7079 39.4859 60.5719 39.3073 60.4394 39.1669C59.3007 37.9593 57.4818 37.6525 55.9999 38.418" stroke="currentColor" stroke-width="3" stroke-linecap="round" stroke-linejoin="round" fill="none"/>
<path d="M68.0001 60C65.4294 60 62.9814 58.8948 61.2735 56.9632L59.9171 55.429C57.9547 53.2095 55.3431 51.7149 52.4957 51.1318M47.7461 50.8579C47.1264 50.8579 46.8166 50.8579 46.5294 50.8163C44.0504 50.4566 42.6402 47.6201 41.0001 46" stroke="currentColor" stroke-width="3" stroke-linecap="round" stroke-linejoin="round" fill="none"/>
</svg>
