<svg width="100" height="100" viewBox="0 0 100 100" fill="none" xmlns="http://www.w3.org/2000/svg">


<path d="M52 35C52 36.6569 50.6569 38 49 38C47.3431 38 46 36.6569 46 35C46 33.3431 47.3431 32 49 32C50.6569 32 52 33.3431 52 35Z" stroke="currentColor" stroke-width="3" fill="none"/>
<path d="M47.8953 68L50.1572 61.1816C50.964 58.7494 51.3674 57.5333 50.7643 56.6925C50.1611 55.8516 48.8854 55.8516 46.3341 55.8516H43.8658M62 42.6909L58.5278 44.6847C56.7724 45.6926 55.8947 46.1966 54.9247 46.2417C53.9547 46.2868 53.0344 45.8665 51.1938 45.0258L49.6274 44.3103M43.8658 55.8516H41.8505C39.9534 55.8516 39.0048 55.8516 38.4001 55.1052C37.7954 54.3587 37.9684 53.5192 38.3146 51.8403C38.8942 49.0288 40.0583 45.534 42.1843 43.1574C42.7712 42.5015 43.0646 42.1735 43.7101 42.038C44.3556 41.9024 44.872 42.1383 45.9046 42.61L49.6274 44.3103M43.8658 55.8516C44.3486 53.2195 46.1769 47.2263 49.6274 44.3103" stroke="currentColor" stroke-width="3" stroke-linecap="round" stroke-linejoin="round" fill="none"/>
</svg>
