<svg width="100" height="100" viewBox="0 0 100 100" fill="none" xmlns="http://www.w3.org/2000/svg">


<path d="M58 36.9997C58 38.6565 56.6569 39.9997 55 39.9997C53.3431 39.9997 52 38.6565 52 36.9997C52 35.3428 53.3431 33.9997 55 33.9997C56.6569 33.9997 58 35.3428 58 36.9997Z" stroke="currentColor" stroke-width="3" fill="none"/>
<path d="M54.7204 55.9997L56.6078 54.9077C58.7572 53.6642 59.8318 53.0424 59.977 52.1564C59.9997 52.018 60.0056 51.8779 59.9946 51.7384C59.9243 50.8455 58.9048 50.1574 56.8658 48.7811L47.4518 42.4269C43.7544 39.9312 42.9037 35.3819 45.5019 31.9997" stroke="currentColor" stroke-width="3" stroke-linecap="round" stroke-linejoin="round" fill="none"/>
<path d="M47.4518 42.4269C42.4518 47.4269 40 61.2644 40 68.0003M47.4518 42.4269C43.7544 39.9312 42.9037 35.3819 45.5019 31.9997M47.4518 42.4269L52.745 45.9997M54.7204 55.9997L56.6078 54.9077C58.7572 53.6642 59.8318 53.0424 59.977 52.1564C59.9997 52.018 60.0056 51.8779 59.9946 51.7384C59.9243 50.8455 58.9048 50.1574 56.8658 48.7811L52.745 45.9997M56.0003 68.0003C54.0536 65.7291 52.0515 62.5997 50.1003 59.7153C48.7333 57.6945 48.0498 56.6841 47.969 55.6261M52.745 45.9997C51.1395 48.0779 50.0328 50.0411 49.2052 51.7881C48.3272 53.6415 47.8882 54.5682 47.969 55.6261M47.969 55.6261L42 53.9997" stroke="currentColor" stroke-width="3" stroke-linecap="round" stroke-linejoin="round" fill="none"/>
</svg>
