<svg width="100" height="100" viewBox="0 0 100 100" fill="none" xmlns="http://www.w3.org/2000/svg">


<path d="M40 37C40 38.6569 38.6569 40 37 40C35.3431 40 34 38.6569 34 37C34 35.3431 35.3431 34 37 34C38.6569 34 40 35.3431 40 37Z" stroke="currentColor" stroke-width="3" fill="none"/>
<path d="M43.897 54H42.2779C40.652 54 39.839 54 39.2769 53.526C38.7148 53.0521 38.5812 52.2539 38.3139 50.6576L38.1604 49.741C38.0168 48.8834 37.945 48.4546 38.0499 48.0461C38.1549 47.6376 38.4248 47.2958 38.9644 46.6121L41.4626 43.4474M45.5714 38L43.3946 41L41.4626 43.4474M45.5714 38L49.9251 32M45.5714 38L54.5717 45M54.5717 45L66 32M54.5717 45L51.9344 51M41.4626 43.4474L51.9344 51M51.9344 51V68" stroke="currentColor" stroke-width="3" stroke-linecap="round" stroke-linejoin="round" fill="none"/>
</svg>
