<svg width="100" height="100" viewBox="0 0 100 100" fill="none" xmlns="http://www.w3.org/2000/svg">


<path d="M40 45C40 46.6569 38.6569 48 37 48C35.3431 48 34 46.6569 34 45C34 43.3431 35.3431 42 37 42C38.6569 42 40 43.3431 40 45Z" stroke="currentColor" stroke-width="3" fill="none"/>
<path d="M45.4849 31.7879C45.3678 30.9678 44.608 30.3979 43.7879 30.5151C42.9678 30.6322 42.3979 31.392 42.5151 32.2121L45.4849 31.7879ZM45.2932 41.0522L43.8082 41.2643H43.8082L45.2932 41.0522ZM43.7648 50.4704L45.1065 51.1412L45.1065 51.1412L43.7648 50.4704ZM38.6584 57.3292C38.2879 58.0701 38.5882 58.9712 39.3292 59.3416C40.0701 59.7121 40.9712 59.4118 41.3416 58.6708L38.6584 57.3292ZM60.5605 50.775L61.9909 50.3233V50.3233L60.5605 50.775ZM64.5696 68.4517C64.8191 69.2417 65.6617 69.6798 66.4517 69.4304C67.2417 69.1809 67.6798 68.3383 67.4304 67.5483L64.5696 68.4517ZM45.6237 45.9389L44.1431 45.6987L45.6237 45.9389ZM58.2811 48.2857L57.7055 49.6709V49.6709L58.2811 48.2857ZM44.2045 49.5887L42.8606 48.9225L42.8606 48.9225L44.2045 49.5887ZM48.5955 67.4733C48.3046 68.249 48.6976 69.1136 49.4733 69.4045C50.249 69.6954 51.1136 69.3024 51.4045 68.5267L48.5955 67.4733ZM59.8108 49.4089L60.96 48.4448L59.8108 49.4089ZM42.5151 32.2121L43.8082 41.2643L46.7781 40.8401L45.4849 31.7879L42.5151 32.2121ZM42.4232 49.7995L38.6584 57.3292L41.3416 58.6708L45.1065 51.1412L42.4232 49.7995ZM59.1302 51.2267L64.5696 68.4517L67.4304 67.5483L61.9909 50.3233L59.1302 51.2267ZM43.8082 41.2643C43.9165 42.0218 44.0053 42.6443 44.0722 43.1843L47.0494 42.8157C46.9784 42.242 46.8851 41.589 46.7781 40.8401L43.8082 41.2643ZM44.0722 43.1843C44.2239 44.4101 44.2431 45.082 44.1431 45.6987L47.1043 46.1792C47.2753 45.1258 47.2092 44.1059 47.0494 42.8157L44.0722 43.1843ZM44.9852 44.3852L57.7055 49.6709L58.8567 46.9006L46.1364 41.6148L44.9852 44.3852ZM45.1065 51.1412C45.2635 50.827 45.4115 50.5311 45.5484 50.2549L42.8606 48.9225C42.7263 49.1932 42.5808 49.4843 42.4232 49.7995L45.1065 51.1412ZM45.5484 50.2549C46.3557 48.6264 46.895 47.4691 47.1043 46.1792L44.1431 45.6987C44.0169 46.4758 43.6924 47.2446 42.8606 48.9225L45.5484 50.2549ZM53.8455 53.4733L48.5955 67.4733L51.4045 68.5267L56.6545 54.5267L53.8455 53.4733ZM43.6482 50.9817L54.6937 55.393L55.8063 52.607L44.7608 48.1957L43.6482 50.9817ZM61.9909 50.3233C61.7712 49.6274 61.4181 48.991 60.96 48.4448L58.6616 50.3729C58.8699 50.6212 59.0302 50.9103 59.1302 51.2267L61.9909 50.3233ZM60.96 48.4448C60.3995 47.7767 59.6813 47.2432 58.8567 46.9006L57.7055 49.6709C58.0803 49.8266 58.4067 50.069 58.6616 50.3729L60.96 48.4448ZM58.7466 48.3517L54.1858 52.9429L56.3142 55.0571L60.875 50.466L58.7466 48.3517Z" fill="none"/>
</svg>
