<svg width="100" height="100" viewBox="0 0 100 100" fill="none" xmlns="http://www.w3.org/2000/svg">


<path d="M58 35C58 36.6569 56.6569 38 55 38C53.3431 38 52 36.6569 52 35C52 33.3431 53.3431 32 55 32C56.6569 32 58 33.3431 58 35Z" stroke="currentColor" stroke-width="3" fill="none"/>
<path d="M36 50L38.9524 45.3486C39.4738 44.5271 39.7346 44.1163 40.075 43.7826C40.4155 43.4488 40.8236 43.2039 41.6397 42.714L43.4832 41.6076C45.2082 40.5723 46.0707 40.0546 47.0244 40.0041C47.9781 39.9535 48.8859 40.3772 50.7014 41.2247L54.0913 42.8072C54.8378 43.1556 55.2111 43.3299 55.5377 43.5737C55.7692 43.7465 55.9825 43.9447 56.174 44.1649C56.4442 44.4757 56.6543 44.8435 57.0746 45.5793C57.8142 46.8739 58.1839 47.5211 58.7055 47.9772C59.0735 48.299 59.4935 48.5487 59.9455 48.7146C60.5861 48.9497 61.3049 48.9497 62.7423 48.9497H64" stroke="currentColor" stroke-width="3" stroke-linecap="round" stroke-linejoin="round" fill="none"/>
<path d="M49 41L42 54M42 54L44.8936 58.0511C46.0891 59.7247 45.8205 62.032 44.2727 63.3864L39 68M42 54H49M60 62L55.2 55.6C54.4446 54.5928 53.259 54 52 54H49M49 54L56 44" stroke="currentColor" stroke-width="3" stroke-linecap="round" stroke-linejoin="round" fill="none"/>
</svg>
