<svg width="100" height="100" viewBox="0 0 100 100" fill="none" xmlns="http://www.w3.org/2000/svg">


<path d="M41.772 46C43.1435 48.7937 44.6088 51.4098 44.2704 54.6285C43.7294 59.7738 37.4902 61.7105 33.5004 64.0809C30.8865 65.6338 31.8638 70 35.0716 70C38.9609 70 42.4321 69.6897 45.9412 68.0402L52.8222 63.8056C53.7773 63.3567 54.9825 63.548 56 64" stroke="currentColor" stroke-width="3" stroke-linecap="round" stroke-linejoin="round" fill="none"/>
<path d="M58.021 46C56.6204 48.7937 55.124 51.4098 55.4696 54.6285C56.0221 59.7738 62.3934 61.7105 66.4678 64.0809C69.1371 65.6338 68.1391 70 64.8633 70C60.8916 70 57.3468 69.6897 53.7634 68.0402L46.7366 63.8056C45.9164 63.4281 44.9155 63.5033 44 63.8056" stroke="currentColor" stroke-width="3" stroke-linecap="round" stroke-linejoin="round" fill="none"/>
<path d="M46 34C46 36.2091 47.7909 38 50 38C52.2091 38 54 36.2091 54 34C54 31.7909 52.2091 30 50 30C47.7909 30 46 31.7909 46 34Z" stroke="currentColor" stroke-width="3" fill="none"/>
<path d="M32 58C36.8917 58 39.0874 52.5898 39.7867 48.8582C39.9693 47.8841 40.2649 46.913 40.9125 46.1628C43.113 43.6135 46.3681 42 50 42C53.6319 42 56.887 43.6135 59.0875 46.1628C59.7351 46.913 60.0307 47.8841 60.2133 48.8582C60.9126 52.5898 63.1083 58 68 58" stroke="currentColor" stroke-width="3" stroke-linecap="round" stroke-linejoin="round" fill="none"/>
</svg>
