<svg width="100" height="100" viewBox="0 0 100 100" fill="none" xmlns="http://www.w3.org/2000/svg">


<path d="M39.4999 53C39.4999 52.1716 38.8283 51.5 37.9999 51.5C37.1715 51.5 36.4999 52.1716 36.4999 53H39.4999ZM47.3143 51.5484L45.9291 52.1241V52.1241L47.3143 51.5484ZM46.9818 56.0244L48.1756 56.9326L48.1756 56.9326L46.9818 56.0244ZM64.3432 60.4853L65.4038 61.5459V61.5459L64.3432 60.4853ZM67.1716 57.6569L66.1109 56.5962V56.5962L67.1716 57.6569ZM69.9999 54.0231L71.4998 54.0405V54.0405L69.9999 54.0231ZM69.3978 52.5695L68.3495 53.6424V53.6424L69.3978 52.5695ZM60.6393 63.5433L61.2133 64.9291L61.2133 64.9291L60.6393 63.5433ZM61.9999 50.5C61.1715 50.5 60.4999 51.1716 60.4999 52C60.4999 52.8284 61.1715 53.5 61.9999 53.5V50.5ZM42.9999 56.5C41.0669 56.5 39.4999 54.933 39.4999 53H36.4999C36.4999 56.5899 39.41 59.5 42.9999 59.5V56.5ZM38.9999 62.5C34.8577 62.5 31.4999 59.1421 31.4999 55H28.4999C28.4999 60.799 33.2009 65.5 38.9999 65.5V62.5ZM31.4999 55C31.4999 50.8579 34.8577 47.5 38.9999 47.5V44.5C33.2009 44.5 28.4999 49.201 28.4999 55H31.4999ZM38.9999 65.5H55.8579V62.5H38.9999V65.5ZM38.9999 47.5C42.1206 47.5 44.7997 49.4065 45.9291 52.1241L48.6994 50.9727C47.121 47.175 43.3746 44.5 38.9999 44.5V47.5ZM45.788 55.1162C45.1461 55.96 44.1364 56.5 42.9999 56.5V59.5C45.1131 59.5 46.9909 58.49 48.1756 56.9326L45.788 55.1162ZM45.9291 52.1241C46.4061 53.2718 46.323 54.4129 45.788 55.1162L48.1756 56.9326C49.5604 55.1122 49.4393 52.7531 48.6994 50.9727L45.9291 52.1241ZM65.4038 61.5459L68.2322 58.7175L66.1109 56.5962L63.2825 59.4246L65.4038 61.5459ZM68.2322 58.7175C69.1488 57.8009 69.9164 57.0357 70.4446 56.3946C70.9392 55.7943 71.4886 55.0043 71.4998 54.0405L68.5 54.0058C68.5017 53.8568 68.5766 53.944 68.1292 54.487C67.7154 54.9893 67.0736 55.6335 66.1109 56.5962L68.2322 58.7175ZM64.8284 53.5C66.1898 53.5 67.0992 53.5017 67.747 53.5642C68.4473 53.6319 68.456 53.7465 68.3495 53.6424L70.4461 51.4967C69.7567 50.823 68.8096 50.6529 68.0353 50.5781C67.2085 50.4983 66.1247 50.5 64.8284 50.5V53.5ZM71.4998 54.0405C71.5108 53.0842 71.1301 52.165 70.4461 51.4967L68.3495 53.6424C68.4472 53.7379 68.5016 53.8692 68.5 54.0058L71.4998 54.0405ZM55.8579 65.5C58.188 65.5 59.7709 65.5266 61.2133 64.9291L60.0652 62.1575C59.3024 62.4734 58.4328 62.5 55.8579 62.5V65.5ZM63.2825 59.4246C61.4618 61.2453 60.8281 61.8415 60.0652 62.1575L61.2133 64.9291C62.6557 64.3316 63.7562 63.1936 65.4038 61.5459L63.2825 59.4246ZM64.8284 50.5L61.9999 50.5V53.5L64.8284 53.5V50.5Z" fill="none"/>
<path d="M46.9999 56L60.242 46.9866C60.6159 46.7086 60.9495 46.3804 61.2325 46.0122C62.2013 44.7519 62.1822 43.0039 61.5681 41.5417C60.2016 38.2879 56.959 36 53.1764 36C51.3091 36 49.5734 36.5576 48.13 37.5137L33.9999 47.5015" stroke="currentColor" stroke-width="3" stroke-linecap="round" stroke-linejoin="round" fill="none"/>
</svg>
