<svg width="100" height="100" viewBox="0 0 100 100" fill="none" xmlns="http://www.w3.org/2000/svg">


<path d="M44 46C44 53.732 50 60 50 60C50 60 56 53.732 56 46C56 38.268 50 32 50 32C50 32 44 38.268 44 46Z" stroke="currentColor" stroke-width="3" stroke-linejoin="round" fill="none"/>
<path d="M38.6619 42C34.2284 40.0924 30 40 30 40C30 40 30.1914 48.7629 35.7143 54.2857C41.2371 59.8086 50 60 50 60C50 60 58.7629 59.8086 64.2857 54.2857C69.8086 48.7629 70 40 70 40C70 40 65.7716 40.0924 61.3381 42" stroke="currentColor" stroke-width="3" stroke-linecap="round" stroke-linejoin="round" fill="none"/>
<path d="M50.0414 60C49.7088 62.6667 51.3208 68 57.0269 68C61.0186 68 63.0145 64 70 68C69.1999 63.9998 67.5996 61.4399 65.2659 60M49.9586 60C50.2912 62.6667 48.6792 68 42.9731 68C38.9814 68 36.9855 64 30 68C30.8001 63.9998 32.4004 61.4399 34.7341 60" stroke="currentColor" stroke-width="3" stroke-linecap="round" stroke-linejoin="round" fill="none"/>
</svg>
