<svg width="100" height="100" viewBox="0 0 100 100" fill="none" xmlns="http://www.w3.org/2000/svg">


<path d="M70 50C70 61.0457 61.0457 70 50 70C38.9543 70 30 61.0457 30 50C30 38.9543 38.9543 30 50 30C61.0457 30 70 38.9543 70 50Z" stroke="currentColor" stroke-width="3" fill="none"/>
<path d="M63.7053 35.4348C62.0767 44.8438 53.8736 51.9999 43.9991 51.9999C38.6948 51.9999 33.8727 49.935 30.293 46.5651M69.6191 46.1001C65.3856 55.4754 55.9543 61.9999 44.9991 61.9999C40.2707 61.9999 35.8261 60.7844 31.9608 58.6488M33.3085 38.9767C35.6961 40.8695 38.7156 41.9999 41.9991 41.9999C48.7623 41.9999 54.4053 37.2043 55.7133 30.8281" stroke="currentColor" stroke-width="3" stroke-linecap="round" stroke-linejoin="round" fill="none"/>
</svg>
